<svg width="18" height="11" viewBox="0 0 18 11" xmlns="http://www.w3.org/2000/svg">
<path fill-rule="evenodd" clip-rule="evenodd" d="M11.7636 0.263604C12.1151 -0.087868 12.6849 -0.0878679 13.0364 0.263604L17.5364 4.7636C17.8879 5.11508 17.8879 5.68492 17.5364 6.0364L13.0364 10.5364C12.6849 10.8879 12.1151 10.8879 11.7636 10.5364C11.4121 10.1849 11.4121 9.61508 11.7636 9.2636L14.7272 6.3L0.9 6.3C0.402944 6.3 -4.34541e-08 5.89706 0 5.4C4.34541e-08 4.90294 0.402944 4.5 0.9 4.5L14.7272 4.5L11.7636 1.5364C11.4121 1.18492 11.4121 0.615076 11.7636 0.263604Z" />
</svg>
