<svg width="24" height="24" viewBox="0 0 24 24" fill="none" xmlns="http://www.w3.org/2000/svg">
<path d="M2.57794 2.57794C2.10814 3.04774 2.10814 3.80943 2.57794 4.27923L10.1483 11.8496L2.57794 19.4199C2.10814 19.8897 2.10814 20.6514 2.57794 21.1212C3.04774 21.591 3.80943 21.591 4.27923 21.1212L11.8496 13.5509L19.4199 21.1212C19.8897 21.591 20.6514 21.591 21.1212 21.1212C21.591 20.6514 21.591 19.8897 21.1212 19.4199L13.5509 11.8496L21.1212 4.27923C21.591 3.80943 21.591 3.04774 21.1212 2.57794C20.6514 2.10814 19.8897 2.10814 19.4199 2.57794L11.8496 10.1483L4.27923 2.57794C3.80943 2.10814 3.04774 2.10814 2.57794 2.57794Z" fill="black"/>
</svg>
