<svg width="24" height="24" viewBox="0 0 24 24" fill="none" xmlns="http://www.w3.org/2000/svg">
<path d="M15.9412 3C13.528 3 11.3596 4.03941 9.88122 5.68251C10.4331 5.84962 10.962 6.06833 11.4619 6.33224C12.6231 5.23922 14.2027 4.56571 15.9412 4.56571C19.4986 4.56571 22.3932 7.3858 22.3932 10.8527C22.3932 14.3197 19.4988 17.1398 15.9412 17.1398C15.7889 17.1398 15.6378 17.1342 15.4882 17.1241C15.2737 17.647 15.0085 18.1449 14.698 18.6119C15.1033 18.6732 15.5184 18.7053 15.9412 18.7053C20.3846 18.7053 24 15.1827 24 10.8525C24 6.52278 20.3848 3 15.9412 3Z" fill="black"/>
<path d="M17.2737 10.2268C16.6194 10.2268 16.0896 10.7435 16.0896 11.3811C16.0896 12.0186 16.6197 12.5349 17.2737 12.5349C17.9284 12.5349 18.4585 12.0184 18.4585 11.3811C18.4585 10.7437 17.9284 10.2268 17.2737 10.2268Z" fill="black"/>
<path d="M17.0517 6.56193C17.0517 5.77881 16.3998 5.14311 15.596 5.14311C14.7918 5.14311 14.1399 5.77886 14.1399 6.56193C14.1399 7.34551 14.7918 7.98072 15.596 7.98072C16.3998 7.98072 17.0517 7.34534 17.0517 6.56193Z" fill="black"/>
<path d="M16.7803 15.0846C16.7803 15.5364 17.1561 15.9021 17.6193 15.9021C18.0831 15.9021 18.4584 15.5364 18.4584 15.0846C18.4584 14.6327 18.083 14.267 17.6193 14.267C17.1562 14.267 16.7803 14.6327 16.7803 15.0846Z" fill="black"/>
<path d="M21.5431 9.5548C21.5431 8.95702 21.0461 8.47273 20.4326 8.47273C19.8192 8.47273 19.3222 8.95702 19.3222 9.5548C19.3222 10.1523 19.8192 10.6368 20.4326 10.6368C21.0461 10.6368 21.5431 10.1522 21.5431 9.5548Z" fill="black"/>
<path d="M7.2552 6.86112C3.24821 6.86112 0 10.0261 0 13.9304C0 17.8349 3.24835 21 7.2552 21C11.2622 21 14.51 17.8347 14.51 13.9304C14.51 10.026 11.262 6.86112 7.2552 6.86112ZM1.8261 11.7184C1.8261 10.8955 2.51139 10.2278 3.35622 10.2278C4.20122 10.2278 4.88599 10.8955 4.88599 11.7184C4.88599 12.5416 4.20104 13.2096 3.35622 13.2096C2.51139 13.2094 1.8261 12.5416 1.8261 11.7184ZM4.24468 17.4896C3.61737 17.4896 3.10946 16.9941 3.10946 16.3834C3.10946 15.7726 3.61737 15.2772 4.24468 15.2772C4.87146 15.2772 5.37988 15.7725 5.37988 16.3834C5.37988 16.9941 4.8716 17.4896 4.24468 17.4896ZM6.90982 13.9305C6.90982 13.293 7.44026 12.7765 8.09456 12.7765C8.74887 12.7765 9.27873 13.293 9.27873 13.9305C9.27873 14.5682 8.74863 15.0848 8.09456 15.0848C7.44007 15.0849 6.90982 14.5681 6.90982 13.9305ZM8.93335 18.9804C8.46974 18.9804 8.09437 18.6141 8.09437 18.1629C8.09437 17.7111 8.4697 17.3453 8.93335 17.3453C9.39661 17.3453 9.77247 17.7111 9.77247 18.1629C9.77247 18.6141 9.39676 18.9804 8.93335 18.9804ZM9.27858 11.2132C8.47475 11.2132 7.82288 10.5777 7.82288 9.79467C7.82288 9.01107 8.4748 8.37587 9.27858 8.37587C10.0828 8.37587 10.7346 9.01126 10.7346 9.79467C10.7346 10.5779 10.0828 11.2132 9.27858 11.2132ZM11.7463 15.5654C11.283 15.5654 10.9075 15.1996 10.9075 14.7478C10.9075 14.2964 11.2829 13.9303 11.7463 13.9303C12.2099 13.9303 12.5853 14.2964 12.5853 14.7478C12.5854 15.1996 12.2099 15.5654 11.7463 15.5654Z" fill="black"/>
</svg>
