<svg width="50" height="38" viewBox="0 0 50 38" xmlns="http://www.w3.org/2000/svg">
<path d="M32.7934 0C27.829 0 23.3683 2.19433 20.3271 5.66316C21.4624 6.01595 22.5504 6.47767 23.5788 7.03482C25.9675 4.72731 29.217 3.30543 32.7934 3.30543C40.1115 3.30543 46.0661 9.25904 46.0661 16.5782C46.0661 23.8974 40.1118 29.851 32.7934 29.851C32.4801 29.851 32.1693 29.8392 31.8614 29.8179C31.4203 30.9218 30.8746 31.973 30.2359 32.9588C31.0696 33.0884 31.9237 33.156 32.7933 33.156C41.934 33.156 49.3715 25.7193 49.3715 16.5778C49.3715 7.43707 41.9345 0.000530512 32.7933 0.000530512L32.7934 0Z" />
<path d="M35.5346 15.2568C34.1886 15.2568 33.0986 16.3476 33.0986 17.6936C33.0986 19.0395 34.1891 20.1296 35.5346 20.1296C36.8813 20.1296 37.9718 19.0392 37.9718 17.6936C37.9718 16.348 36.8813 15.2568 35.5346 15.2568V15.2568Z" />
<path d="M35.0778 7.51972C35.0778 5.86645 33.7367 4.52441 32.0832 4.52441C30.4289 4.52441 29.0879 5.86655 29.0879 7.51972C29.0879 9.17398 30.4289 10.515 32.0832 10.515C33.7368 10.515 35.0778 9.17362 35.0778 7.51972Z" />
<path d="M34.5195 25.5123C34.5195 26.466 35.2927 27.2382 36.2454 27.2382C37.1995 27.2382 37.9716 26.466 37.9716 25.5123C37.9716 24.5582 37.1994 23.7861 36.2454 23.7861C35.2928 23.7861 34.5195 24.5583 34.5195 25.5123Z" />
<path d="M44.3173 13.8381C44.3173 12.5761 43.2948 11.5537 42.0329 11.5537C40.7709 11.5537 39.7485 12.5761 39.7485 13.8381C39.7485 15.0994 40.771 16.1224 42.0329 16.1224C43.2949 16.1224 44.3173 15.0993 44.3173 13.8381Z" />
<path d="M14.925 8.15137C6.68204 8.15137 0 14.833 0 23.0755C0 31.3185 6.68232 38.0005 14.925 38.0005C23.168 38.0005 29.8491 31.3182 29.8491 23.0755C29.8491 14.8329 23.1676 8.15137 14.925 8.15137V8.15137ZM3.75655 18.4058C3.75655 16.6686 5.1663 15.2588 6.90423 15.2588C8.64252 15.2588 10.0512 16.6686 10.0512 18.4058C10.0512 20.1437 8.64215 21.5538 6.90423 21.5538C5.1663 21.5535 3.75655 20.1437 3.75655 18.4058ZM8.73192 30.5895C7.44146 30.5895 6.39661 29.5435 6.39661 28.2542C6.39661 26.9648 7.44146 25.9189 8.73192 25.9189C10.0213 25.9189 11.0672 26.9645 11.0672 28.2542C11.0672 29.5435 10.0216 30.5895 8.73192 30.5895ZM14.2145 23.0759C14.2145 21.7299 15.3057 20.6396 16.6517 20.6396C17.9977 20.6396 19.0877 21.73 19.0877 23.0759C19.0877 24.422 17.9972 25.5127 16.6517 25.5127C15.3053 25.513 14.2145 24.4219 14.2145 23.0759ZM18.3772 33.7368C17.4235 33.7368 16.6513 32.9636 16.6513 32.0109C16.6513 31.0572 17.4234 30.285 18.3772 30.285C19.3302 30.285 20.1034 31.0572 20.1034 32.0109C20.1034 32.9635 19.3305 33.7368 18.3772 33.7368ZM19.0874 17.3391C17.4338 17.3391 16.0928 15.9976 16.0928 14.3445C16.0928 12.6902 17.4339 11.3492 19.0874 11.3492C20.7417 11.3492 22.0827 12.6906 22.0827 14.3445C22.0827 15.9981 20.7417 17.3391 19.0874 17.3391ZM24.1638 26.5272C23.2108 26.5272 22.4383 25.755 22.4383 24.8013C22.4383 23.8483 23.2105 23.0754 24.1638 23.0754C25.1176 23.0754 25.8897 23.8483 25.8897 24.8013C25.8901 25.755 25.1176 26.5272 24.1638 26.5272Z" />
</svg>
