<svg width="24" height="24" viewBox="0 0 24 24" fill="none" xmlns="http://www.w3.org/2000/svg">
<path d="M17.2296 6.18936C15.5845 4.25843 15.5845 2.52084 15.4834 1.86899C15.3823 1.21714 14.7494 1.62743 14.7494 1.62743C9.81914 5.00874 10.1251 10.1184 10.0009 11.7129C9.98853 11.8688 9.82451 11.9714 9.67017 11.9181C8.28701 11.4416 7.86055 9.61683 7.78956 9.27783C7.71373 8.91575 7.6207 8.57573 7.40989 8.52957C6.1956 8.26493 4.5 10.9918 4.5 14.926C4.5 17.6775 7.13187 22.5 12.7656 22.5C18.3993 22.5 21 17.9192 21 14.4434C21 10.9677 18.8742 8.11979 17.2296 6.18936ZM12.7764 21.6353C9.24693 21.6353 10.0885 16.9067 10.2445 17.2908C10.8597 18.8064 12.1525 18.6591 12.3198 16.977C12.4919 15.2466 13.3824 14.2013 13.3824 14.2013C14.0826 15.9077 14.8468 16.8375 15.3266 17.9181C15.8164 19.0208 15.7141 21.6353 12.7764 21.6353Z" fill="black"/>
</svg>
