<svg width="16" height="16" viewBox="0 0 16 16" xmlns="http://www.w3.org/2000/svg">
<path d="M11.4864 4.12624C10.3897 2.83895 10.3897 1.68056 10.3223 1.24599C10.2549 0.811424 9.83296 1.08495 9.83296 1.08495C6.54609 3.33916 6.75008 6.74561 6.66726 7.80861C6.65902 7.91255 6.54967 7.98093 6.44678 7.94537C5.52467 7.62774 5.24037 6.41122 5.19304 6.18522C5.14249 5.94383 5.08047 5.71715 4.93993 5.68638C4.1304 5.50995 3 7.32788 3 9.95068C3 11.785 4.75458 15 8.5104 15C12.2662 15 14 11.9461 14 9.62894C14 7.31181 12.5828 5.41319 11.4864 4.12624ZM8.51757 14.4235C6.16462 14.4235 6.7257 11.2711 6.82967 11.5272C7.23981 12.5376 8.10169 12.4394 8.21319 11.318C8.32791 10.1644 8.92162 9.46756 8.92162 9.46756C9.3884 10.6051 9.89786 11.225 10.2177 11.9454C10.5443 12.6805 10.4761 14.4235 8.51757 14.4235Z" />
</svg>
