<svg width="24" height="24" viewBox="0 0 24 24" fill="none" xmlns="http://www.w3.org/2000/svg">
<path d="M10.6287 2.37722C11.1491 1.20759 12.8509 1.2076 13.3713 2.37722L15.103 6.26963C15.5361 7.2432 16.4781 7.91025 17.562 8.01092L21.8952 8.41337C23.1972 8.5343 23.7231 10.1118 22.7427 10.9556L19.4797 13.7637C18.6636 14.4661 18.3038 15.5454 18.5405 16.5812L19.4868 20.7224C19.7712 21.9666 18.3944 22.9416 17.268 22.2934L13.5197 20.1366C12.5822 19.5971 11.4178 19.5971 10.4803 20.1366L6.73194 22.2934C5.60561 22.9416 4.22885 21.9666 4.5132 20.7224L5.45954 16.5812C5.69624 15.5454 5.33645 14.4661 4.52031 13.7637L1.25736 10.9556C0.276887 10.1118 0.802769 8.5343 2.10485 8.41337L6.43806 8.01092C7.52189 7.91025 8.46387 7.2432 8.89701 6.26963L10.6287 2.37722Z" fill="black"/>
</svg>
