<svg width="16" height="16" viewBox="0 0 16 16" xmlns="http://www.w3.org/2000/svg">
<path d="M7.08583 1.58481C7.43274 0.805062 8.56726 0.805064 8.91417 1.58481L10.0687 4.17975C10.3574 4.8288 10.9854 5.2735 11.708 5.34061L14.5968 5.60891C15.4648 5.68953 15.8154 6.74121 15.1618 7.30374L12.9865 9.1758C12.4424 9.64404 12.2025 10.3636 12.3603 11.0541L12.9912 13.8149C13.1808 14.6444 12.2629 15.2944 11.512 14.8623L9.01314 13.4244C8.38811 13.0647 7.61189 13.0647 6.98686 13.4244L4.48796 14.8623C3.73707 15.2944 2.81923 14.6444 3.0088 13.8149L3.63969 11.0541C3.79749 10.3636 3.55763 9.64404 3.01354 9.1758L0.838241 7.30374C0.184591 6.7412 0.535179 5.68953 1.40323 5.60891L4.29204 5.34061C5.01459 5.2735 5.64258 4.8288 5.93134 4.17975L7.08583 1.58481Z" />
</svg>
