<svg width="40" height="14" viewBox="0 0 40 14" xmlns="http://www.w3.org/2000/svg">
<path d="M37.2925 12.5177C37.2953 12.8712 37.4388 13.209 37.6915 13.4574C37.9441 13.7058 38.2854 13.8445 38.6406 13.8431C38.9957 13.8417 39.3359 13.7003 39.5865 13.4499C39.8372 13.1995 39.9779 12.8604 39.9779 12.507C39.9779 12.1536 39.8372 11.8145 39.5865 11.5641C39.3359 11.3137 38.9957 11.1723 38.6406 11.1709C38.2854 11.1695 37.9441 11.3082 37.6915 11.5566C37.4388 11.8049 37.2953 12.1428 37.2925 12.4963V12.5177Z"/>
<path d="M27.7168 2.05686C27.7193 2.35796 27.8415 2.64582 28.0568 2.85742C28.2721 3.06903 28.5629 3.18714 28.8655 3.18591C29.1681 3.18468 29.4579 3.0642 29.6714 2.85085C29.8849 2.6375 30.0048 2.34866 30.0048 2.04755C30.0048 1.74644 29.8849 1.4576 29.6714 1.24425C29.4579 1.0309 29.1681 0.910421 28.8655 0.909189C28.5629 0.907957 28.2721 1.02607 28.0568 1.23768C27.8415 1.44928 27.7193 1.73714 27.7168 2.03824V2.05686Z"/>
<path d="M0 2.05686C0.00247568 2.35796 0.124736 2.64582 0.340019 2.85742C0.555301 3.06903 0.846069 3.18714 1.14867 3.18591C1.45127 3.18468 1.74106 3.0642 1.9546 2.85085C2.16813 2.6375 2.28802 2.34866 2.28802 2.04755C2.28802 1.74644 2.16813 1.4576 1.9546 1.24425C1.74106 1.0309 1.45127 0.910421 1.14867 0.909189C0.846069 0.907957 0.555301 1.02607 0.340019 1.23768C0.124736 1.44928 0.00247568 1.73714 0 2.03824V2.05686Z"/>
<path d="M2.16569 13.7484H0.142578V4.87207H2.16569V13.7484Z"/>
<path d="M13.9294 13.7478H11.9085V12.9311C11.5639 13.2752 11.1489 13.5415 10.6917 13.712C10.1819 13.9069 9.63957 14.0041 9.0934 13.9985C8.4272 14.0116 7.76619 13.8796 7.15668 13.6117C6.61358 13.3687 6.1279 13.0148 5.73115 12.5729C5.34518 12.1367 5.04699 11.6308 4.85278 11.0828C4.64896 10.52 4.54659 9.92578 4.5504 9.32756C4.54952 8.72492 4.65178 8.12653 4.85278 7.55804C5.04514 7.0048 5.34343 6.49389 5.73115 6.05359C6.12677 5.61228 6.61287 5.2605 7.15668 5.02196C7.76656 4.75521 8.42731 4.62322 9.0934 4.6351C9.63728 4.62886 10.1773 4.72613 10.6845 4.92166C11.1408 5.09388 11.5554 5.35997 11.9013 5.70254V1.0459H13.9244L13.9294 13.7478ZM11.7479 8.08818C11.6054 7.75059 11.3947 7.44577 11.1287 7.19267C10.8744 6.95582 10.5726 6.77516 10.2432 6.66253C9.9171 6.54816 9.57378 6.49001 9.22803 6.49059C8.85514 6.48355 8.48562 6.56199 8.14808 6.71984C7.82907 6.86452 7.54259 7.07161 7.30572 7.32879C7.06655 7.59048 6.88289 7.8975 6.76574 8.23146C6.63739 8.58032 6.57159 8.9489 6.57135 9.3204C6.57034 9.68968 6.63619 10.0561 6.76574 10.4022C6.8856 10.7343 7.07172 11.0389 7.31291 11.2977C7.55174 11.5527 7.83775 11.7594 8.15528 11.9066C8.49282 12.0645 8.86234 12.1429 9.23523 12.1359C9.58093 12.1359 9.92414 12.0777 10.2504 11.9639C10.5871 11.8498 10.8955 11.6655 11.155 11.4234C11.4144 11.1812 11.619 10.8868 11.7551 10.5598C11.9138 10.1685 11.9921 9.74949 11.9855 9.32756C11.9868 8.90311 11.9061 8.48237 11.7479 8.08818Z"/>
<path d="M22.2592 11.9007C22.6199 11.7508 22.9268 11.4961 23.1398 11.17H25.3357C25.0247 12.023 24.4402 12.7506 23.6725 13.2404C22.8899 13.7492 21.9722 14.0136 21.0375 13.9998C20.3871 14.0054 19.7417 13.8862 19.1367 13.6487C18.5757 13.4262 18.0662 13.0922 17.6392 12.6673C17.214 12.2421 16.8765 11.7384 16.6456 11.1843C16.3983 10.5869 16.2735 9.94626 16.2785 9.30014C16.2739 8.67004 16.3912 8.04496 16.624 7.45897C16.8417 6.90492 17.1699 6.40047 17.5888 5.97601C18.0082 5.5534 18.5073 5.21742 19.0575 4.98737C19.6536 4.74432 20.2925 4.62252 20.9367 4.62916C21.5614 4.62293 22.181 4.74233 22.7582 4.9802C23.2996 5.20393 23.7877 5.53831 24.1909 5.96168C24.5943 6.38453 24.9121 6.88072 25.1269 7.42315C25.3516 7.99852 25.464 8.61124 25.4581 9.2285V9.62969C25.4568 9.76416 25.4448 9.89831 25.4221 10.0309H18.3664C18.4663 10.6345 18.79 11.179 19.2735 11.5568C19.7631 11.9437 20.3463 12.1371 21.0231 12.1371C21.4478 12.1439 21.8694 12.0634 22.2614 11.9007H22.2592ZM19.2642 6.97898C19.0355 7.15051 18.8433 7.36547 18.6987 7.61141C18.5541 7.85736 18.46 8.1294 18.4218 8.4118H23.332C23.2312 7.81718 22.972 7.33718 22.5472 6.97898C22.1224 6.62078 21.5897 6.43451 20.9417 6.43451C20.2937 6.43451 19.7321 6.61361 19.2642 6.97898Z"/>
<path d="M29.8843 13.7484H27.854V4.87207H29.8771L29.8843 13.7484Z"/>
<path d="M34.8595 13.7481H32.8364V1.03906H34.8595V13.7481Z"/>
</svg>
