<svg width="456" height="51" viewBox="0 0 456 51" fill="none" xmlns="http://www.w3.org/2000/svg">
<path d="M341.748 12.1309V38.7323H335.696V12.1309H341.748Z" fill="white"/>
<path d="M339.163 7.57671C339.849 7.57671 340.52 7.37393 341.09 6.99401C341.66 6.61409 342.104 6.0741 342.367 5.44231C342.629 4.81053 342.698 4.11533 342.564 3.44463C342.43 2.77394 342.1 2.15786 341.615 1.67431C341.13 1.19077 340.512 0.861468 339.84 0.728058C339.167 0.594648 338.47 0.663121 337.836 0.924815C337.203 1.18651 336.661 1.62967 336.28 2.19826C335.899 2.76685 335.696 3.43533 335.696 4.11917C335.694 4.57369 335.783 5.02406 335.956 5.44431C336.13 5.86456 336.385 6.24638 336.708 6.56778C337.03 6.88918 337.413 7.1438 337.834 7.31696C338.256 7.49012 338.708 7.5784 339.163 7.57671Z" fill="white"/>
<path d="M377.74 0.674016V38.7836H371.688V36.3467C370.574 37.412 369.258 38.2433 367.816 38.7912C366.374 39.3391 364.836 39.5925 363.294 39.5363C354.619 39.5363 349.706 32.8126 349.706 25.502C349.706 18.1914 354.619 11.4677 363.294 11.4677C364.837 11.4132 366.375 11.6686 367.817 12.2187C369.259 12.7688 370.575 13.6025 371.688 14.6701V0.635742L377.74 0.674016ZM363.665 17.0304C358.918 17.0304 355.733 20.8579 355.733 25.5148C355.733 30.1716 358.931 33.9481 363.665 33.9481C364.777 33.9917 365.886 33.8017 366.919 33.3902C367.953 32.9787 368.888 32.355 369.664 31.5596C370.44 30.7643 371.039 29.8151 371.423 28.7736C371.807 27.7322 371.967 26.6219 371.893 25.5148C371.966 24.4087 371.807 23.2995 371.426 22.2583C371.045 21.217 370.449 20.2666 369.679 19.4679C368.908 18.6693 367.978 18.0399 366.949 17.6202C365.92 17.2004 364.815 16.9995 363.704 17.0304H363.665Z" fill="white"/>
<path d="M404.609 31.7281H411.185C410.192 34.2871 408.429 36.4772 406.138 37.9983C403.848 39.5194 401.142 40.2973 398.391 40.2252C396.519 40.2883 394.654 39.9695 392.91 39.2884C391.166 38.6072 389.58 37.5781 388.249 36.2641C386.918 34.95 385.87 33.3788 385.169 31.6467C384.469 29.9145 384.131 28.058 384.175 26.1909C384.11 24.3423 384.425 22.4999 385.1 20.7771C385.776 19.0543 386.797 17.4875 388.102 16.1729C389.408 14.8584 390.969 13.824 392.689 13.1333C394.41 12.4426 396.255 12.1102 398.109 12.1566C406.042 12.1566 411.633 18.1914 411.633 25.9485C411.664 26.7564 411.604 27.5653 411.454 28.3599H390.394C390.705 30.2067 391.684 31.8758 393.146 33.0513C394.607 34.2269 396.451 34.8274 398.327 34.7391C399.545 34.8144 400.761 34.5771 401.861 34.05C402.961 33.5229 403.907 32.7235 404.609 31.7281ZM390.535 23.4606H405.185C404.962 21.7574 404.103 20.2006 402.779 19.101C401.456 18.0013 399.765 17.4396 398.045 17.5279C394.168 17.5279 391.021 19.8755 390.509 23.4606H390.535Z" fill="white"/>
<path d="M424.556 12.1309V38.7323H418.517V12.1309H424.556Z" fill="white"/>
<path d="M421.972 7.57669C422.658 7.57921 423.33 7.37858 423.901 7.0002C424.473 6.62182 424.92 6.08271 425.184 5.45116C425.449 4.8196 425.519 4.124 425.387 3.45247C425.254 2.78093 424.925 2.16366 424.441 1.67884C423.956 1.19401 423.339 0.863446 422.666 0.728999C421.993 0.594551 421.295 0.662271 420.66 0.923585C420.026 1.1849 419.484 1.62805 419.102 2.19692C418.721 2.76578 418.517 3.43476 418.517 4.11914C418.517 5.03394 418.881 5.91145 419.528 6.5595C420.176 7.20755 421.054 7.57331 421.972 7.57669Z" fill="white"/>
<path d="M439.846 0.673584V38.7831H433.807V0.673584H439.846Z" fill="white"/>
<path d="M447.818 35.2369C447.807 36.0414 448.034 36.8313 448.47 37.508C448.915 38.1815 449.549 38.7091 450.294 39.0246C451.038 39.34 451.859 39.4294 452.654 39.2814C453.452 39.1265 454.186 38.7404 454.765 38.1714C455.339 37.605 455.731 36.881 455.891 36.0918C456.042 35.3029 455.957 34.4873 455.648 33.7458C455.339 33.0043 454.818 32.3695 454.151 31.9197C453.48 31.4653 452.684 31.2291 451.874 31.2435C450.831 31.2294 449.824 31.6213 449.066 32.3361C448.309 33.0509 447.861 34.0321 447.818 35.0711V35.2369Z" fill="#ED2024"/>
<path opacity="0.4" d="M26.2501 19.735C26.2967 20.8174 26.0446 21.8918 25.5212 22.8411C24.9978 23.7905 24.2232 24.5784 23.2817 25.1191C24.2819 25.6884 25.1093 26.5164 25.6768 27.5157C26.2443 28.515 26.5308 29.6485 26.506 30.7966C26.491 32.0255 26.164 33.2306 25.5554 34.2993C24.9468 35.368 24.0765 36.2655 23.0258 36.9079C20.3327 38.6374 17.167 39.489 13.967 39.3448C10.7374 39.4985 7.53866 38.6565 4.80586 36.9335C2.54811 35.4272 0.968946 33.1018 0.404419 30.4521H7.07056C8.03445 32.8592 10.4484 34.0628 14.3125 34.0628C15.8207 34.1146 17.3161 33.7715 18.6499 33.0676C19.1523 32.8485 19.5829 32.4931 19.8928 32.0421C20.2026 31.591 20.3794 31.0622 20.4028 30.5159C20.4171 30.1048 20.3315 29.6964 20.1532 29.3254C19.975 28.9544 19.7095 28.6318 19.3792 28.3853C18.5573 27.8587 17.5915 27.6001 16.6155 27.6453H10.2181V22.7205H16.4236C17.3938 22.7697 18.354 22.5058 19.1617 21.9678C19.4854 21.7197 19.7449 21.3981 19.9186 21.0296C20.0922 20.6612 20.1749 20.2567 20.1597 19.8499C20.1458 19.3129 19.983 18.7902 19.6894 18.3398C19.3958 17.8894 18.9829 17.5289 18.4964 17.2982C17.1939 16.598 15.7271 16.2588 14.2485 16.3158C10.6745 16.3158 8.33726 17.3875 7.2369 19.5309H0.621949C1.33605 17.0298 2.92465 14.8664 5.10014 13.4324C7.8041 11.7598 10.9555 10.9497 14.1333 11.1103C17.0753 11.072 19.9738 11.821 22.5268 13.2793C23.6885 13.9031 24.6525 14.838 25.3103 15.9785C25.9681 17.1191 26.2936 18.42 26.2501 19.735Z" fill="white"/>
<path opacity="0.4" d="M39.9794 50.2914H33.889V11.7736H39.9794V14.3253C41.0853 13.2302 42.4097 12.3793 43.8667 11.8276C45.3237 11.2759 46.8807 11.0358 48.4368 11.1229C50.3019 11.0389 52.1626 11.367 53.8858 12.0838C55.6089 12.8007 57.1518 13.8885 58.404 15.2694C60.8586 17.9992 62.1845 21.5552 62.1145 25.221C62.1911 28.9032 60.8652 32.4775 58.404 35.2236C57.1524 36.6062 55.6099 37.6959 53.8869 38.4149C52.1639 39.1339 50.3028 39.4645 48.4368 39.3829C46.8795 39.4707 45.3212 39.2298 43.8638 38.6757C42.4064 38.1217 41.0827 37.2671 39.9794 36.1678V50.2914ZM42.1929 18.9056C41.3545 19.7134 40.7019 20.693 40.28 21.7767C39.8581 22.8604 39.6769 24.0224 39.749 25.1827C39.6791 26.3466 39.8612 27.5118 40.2829 28.5993C40.7046 29.6868 41.356 30.6711 42.1929 31.4854C43.7748 32.9542 45.8661 33.7545 48.0273 33.7181C49.1163 33.7418 50.197 33.5254 51.1923 33.0843C52.1877 32.6432 53.073 31.9883 53.785 31.1664C55.2736 29.5067 56.074 27.345 56.0241 25.1189C56.0648 22.9097 55.2648 20.7672 53.785 19.1225C53.073 18.3006 52.1877 17.6457 51.1923 17.2046C50.197 16.7635 49.1163 16.5471 48.0273 16.5708C45.8536 16.5712 43.7639 17.4075 42.1929 18.9056Z" fill="white"/>
<path opacity="0.4" d="M81.8821 11.0854C83.7732 11.0307 85.6557 11.3599 87.4153 12.053C89.1749 12.746 90.7749 13.7885 92.118 15.1171C93.4614 16.4322 94.5184 18.0094 95.2229 19.7503C95.9273 21.4911 96.2642 23.3581 96.2124 25.2346C96.2608 27.1042 95.921 28.9636 95.2142 30.696C94.5074 32.4283 93.4489 33.9962 92.1052 35.301C90.7627 36.6313 89.1632 37.6758 87.4036 38.371C85.6441 39.0662 83.7612 39.3978 81.8693 39.3455C79.9799 39.3952 78.0999 39.065 76.3413 38.3745C74.5827 37.684 72.9815 36.6474 71.6334 35.3265C70.281 34.0222 69.2162 32.4511 68.5069 30.7135C67.7975 28.9759 67.4592 27.1099 67.5134 25.2346C67.4626 23.3559 67.8024 21.4871 68.5115 19.7459C69.2206 18.0046 70.2835 16.4286 71.6334 15.1171C72.982 13.7924 74.5847 12.7525 76.3457 12.0598C78.1067 11.367 79.9897 11.0356 81.8821 11.0854ZM81.8821 33.719C82.9831 33.7564 84.0797 33.5622 85.1004 33.1489C86.1211 32.7357 87.043 32.1126 87.8061 31.3204C88.5732 30.5073 89.1715 29.5511 89.5668 28.5067C89.962 27.4623 90.1464 26.3503 90.1092 25.2346C90.1501 24.1127 89.9676 22.9939 89.5723 21.9427C89.177 20.8916 88.5767 19.929 87.8061 19.1105C87.0456 18.314 86.1244 17.6873 85.1033 17.2717C84.0822 16.856 82.9844 16.6609 81.8821 16.6992C80.7806 16.67 79.6853 16.8719 78.667 17.2917C77.6487 17.7114 76.7301 18.3398 75.9709 19.136C75.189 19.9442 74.5769 20.9 74.1704 21.9472C73.7639 22.9945 73.5713 24.1121 73.6038 25.2346C73.5739 26.3491 73.7678 27.4583 74.1744 28.4969C74.5809 29.5355 75.1917 30.4825 75.9709 31.2821C76.7287 32.0803 77.6469 32.7099 78.6656 33.1298C79.6842 33.5498 80.7803 33.7505 81.8821 33.719Z" fill="white"/>
<path opacity="0.4" d="M116.953 12.2332C118.746 12.1911 120.529 12.5171 122.191 13.1909C123.853 13.8647 125.358 14.8719 126.613 16.15C127.885 17.4125 128.887 18.9196 129.558 20.5798C130.229 22.24 130.555 24.0187 130.516 25.8082C130.556 27.6102 130.213 29.4003 129.51 31.0606C128.806 32.721 127.758 34.2138 126.434 35.4408C125.101 36.7234 123.525 37.729 121.798 38.3992C120.072 39.0694 118.229 39.3909 116.377 39.3449C114.431 39.449 112.487 39.1167 110.687 38.3727C108.886 37.6286 107.276 36.4916 105.975 35.0453C103.484 32.1789 102.239 28.1643 102.239 23.0013C102.239 16.7412 103.177 12.0631 105.054 8.96702C106.018 7.41049 107.35 6.11373 108.934 5.19056C110.518 4.26739 112.305 3.74603 114.138 3.67226L119.077 3.14916C120.212 3.08626 121.325 2.80464 122.352 2.31986C122.726 2.10533 123.048 1.81304 123.297 1.46295C123.547 1.11286 123.718 0.713197 123.798 0.29126H129.889C129.806 2.3962 128.944 4.39606 127.47 5.90499C125.774 7.34223 123.654 8.18878 121.431 8.31634L114.829 8.99253C112.944 9.09623 111.171 9.91844 109.877 11.2891C108.713 12.6138 108.029 14.2894 107.933 16.048C109.877 13.4835 112.846 12.2332 116.953 12.2332ZM110.632 31.4857C111.389 32.225 112.289 32.8039 113.276 33.1876C114.263 33.5713 115.318 33.7518 116.377 33.7184C117.436 33.7504 118.491 33.5691 119.478 33.1855C120.465 32.8019 121.364 32.2238 122.122 31.4857C122.877 30.7484 123.472 29.8636 123.868 28.8866C124.264 27.9097 124.454 26.8617 124.425 25.8082C124.457 24.7505 124.269 23.6976 123.873 22.716C123.477 21.7344 122.88 20.8454 122.122 20.1052C121.367 19.3613 120.469 18.7777 119.481 18.3896C118.494 18.0015 117.438 17.8169 116.377 17.8469C115.316 17.8154 114.26 17.9993 113.272 18.3875C112.284 18.7757 111.386 19.3601 110.632 20.1052C109.874 20.8454 109.278 21.7344 108.881 22.716C108.485 23.6976 108.297 24.7505 108.329 25.8082C108.3 26.8617 108.49 27.9097 108.887 28.8866C109.283 29.8636 109.877 30.7484 110.632 31.4857Z" fill="white"/>
<path opacity="0.4" d="M140.176 11.7742H162.426V38.567H156.348V17.1582H146.292V23.0654C146.308 24.8568 146.201 26.6471 145.972 28.424C145.73 30.0787 145.3 31.7009 144.692 33.2594C144.117 34.8667 143.035 36.2452 141.609 37.189C140.004 38.1704 138.141 38.6503 136.261 38.567H134.021V32.915H135.582C136.514 32.9411 137.424 32.6282 138.141 32.0346C138.854 31.3461 139.337 30.455 139.523 29.4829C139.746 28.4813 139.908 27.4673 140.009 26.4464C140.086 25.5661 140.125 24.4306 140.125 23.0144L140.176 11.7742Z" fill="white"/>
<path opacity="0.4" d="M183.806 33.7182C185.024 33.8201 186.247 33.6043 187.355 33.0921C188.463 32.5798 189.418 31.7887 190.127 30.7966H196.742C195.796 33.3649 194.041 35.5583 191.739 37.0482C189.383 38.5834 186.621 39.3829 183.806 39.3447C181.916 39.4004 180.035 39.0729 178.275 38.3821C176.516 37.6912 174.915 36.6515 173.57 35.3258C172.226 34.0071 171.169 32.4253 170.466 30.6798C169.764 28.9343 169.431 27.0627 169.489 25.1828C169.437 23.3252 169.762 21.4762 170.443 19.7465C171.125 18.0169 172.149 16.4421 173.455 15.1164C174.761 13.7873 176.329 12.7427 178.06 12.0487C179.791 11.3547 181.647 11.0265 183.512 11.0847C185.33 11.0294 187.139 11.3551 188.823 12.0408C190.507 12.7265 192.028 13.7569 193.287 15.0654C194.555 16.3758 195.547 17.9254 196.207 19.6233C196.866 21.3212 197.178 23.1332 197.126 24.9532C197.15 25.7587 197.112 26.5649 197.011 27.3645H175.797C176.093 29.1898 177.071 30.8356 178.535 31.9703C180.033 33.1506 181.898 33.7691 183.806 33.7182ZM183.512 16.5198C181.666 16.4586 179.856 17.0406 178.394 18.1657C177.699 18.6796 177.115 19.3271 176.676 20.0699C176.236 20.8128 175.95 21.636 175.835 22.4908H190.613C190.409 20.8166 189.599 19.2742 188.336 18.1529C186.981 17.0409 185.266 16.4602 183.512 16.5198Z" fill="white"/>
<path opacity="0.4" d="M224.609 11.7742H230.713V38.567H224.609V27.7605H210.305V38.567H204.214V11.7742H210.305V22.3765H224.609V11.7742Z" fill="white"/>
<path opacity="0.4" d="M252.144 11.0854C254.035 11.0307 255.917 11.3599 257.677 12.053C259.437 12.746 261.037 13.7885 262.38 15.1171C263.725 16.4311 264.785 18.0079 265.491 19.7487C266.198 21.4896 266.537 23.3572 266.487 25.2346C266.535 27.1042 266.195 28.9636 265.489 30.696C264.782 32.4283 263.723 33.9962 262.38 35.301C261.037 36.6313 259.438 37.6758 257.678 38.371C255.919 39.0662 254.036 39.3978 252.144 39.3455C250.254 39.3952 248.374 39.065 246.616 38.3745C244.857 37.684 243.256 36.6474 241.908 35.3265C240.56 34.0197 239.499 32.4478 238.791 30.7106C238.084 28.9734 237.747 27.1087 237.801 25.2346C237.751 23.3572 238.089 21.4896 238.796 19.7487C239.503 18.0079 240.562 16.4311 241.908 15.1171C243.255 13.7939 244.856 12.755 246.614 12.0623C248.373 11.3696 250.253 11.0374 252.144 11.0854ZM252.144 33.719C253.245 33.7564 254.341 33.5622 255.362 33.1489C256.383 32.7357 257.305 32.1126 258.068 31.3204C258.835 30.5073 259.433 29.5511 259.828 28.5067C260.224 27.4623 260.408 26.3503 260.371 25.2346C260.412 24.1127 260.229 22.9939 259.834 21.9427C259.439 20.8916 258.838 19.929 258.068 19.1105C257.307 18.314 256.386 17.6873 255.365 17.2717C254.344 16.856 253.246 16.6609 252.144 16.6992C251.042 16.67 249.947 16.8719 248.929 17.2917C247.91 17.7114 246.992 18.3398 246.233 19.136C245.451 19.9442 244.839 20.9 244.432 21.9472C244.026 22.9945 243.833 24.1121 243.865 25.2346C243.835 26.3491 244.029 27.4583 244.436 28.4969C244.843 29.5355 245.453 30.4825 246.233 31.2821C246.99 32.0803 247.909 32.7099 248.927 33.1298C249.946 33.5498 251.042 33.7505 252.144 33.719Z" fill="white"/>
<path opacity="0.4" d="M308.48 25.1186C309.466 25.7345 310.268 26.6025 310.804 27.6324C311.339 28.6623 311.588 29.8164 311.525 30.9747C311.55 31.9918 311.357 33.0024 310.96 33.9395C310.563 34.8766 309.97 35.7187 309.222 36.4098C307.406 37.9571 305.054 38.7314 302.671 38.566H286.229V11.7732H302.389C304.78 11.6066 307.141 12.3806 308.966 13.9294C309.715 14.6321 310.306 15.486 310.699 16.4341C311.092 17.3823 311.277 18.403 311.243 19.4283C311.299 20.5319 311.074 21.6315 310.591 22.6259C310.108 23.6204 309.382 24.4776 308.48 25.1186ZM292.333 22.72H301.583C303.963 22.72 305.14 21.7376 305.14 19.7983C305.14 17.859 303.963 16.8766 301.583 16.8766H292.333V22.72ZM292.333 33.4881H301.865C304.245 33.4881 305.435 32.5185 305.435 30.5665C305.435 28.6144 304.245 27.6448 301.865 27.6448H292.333V33.4881Z" fill="white"/>
</svg>
