<svg width="368" height="51" viewBox="0 0 368 51" fill="none" xmlns="http://www.w3.org/2000/svg">
<path d="M252.213 11.6902V38.4611H246.124V11.6902H252.213Z" fill="black"/>
<path d="M249.613 7.10889C250.303 7.10888 250.978 6.90459 251.552 6.52186C252.126 6.13914 252.573 5.59519 252.837 4.95894C253.101 4.32269 253.169 3.62275 253.033 2.94776C252.898 2.27276 252.564 1.65308 252.075 1.1672C251.586 0.68132 250.963 0.35109 250.285 0.218347C249.608 0.0856043 248.906 0.156312 248.268 0.421516C247.631 0.686719 247.087 1.1345 246.705 1.70813C246.323 2.28175 246.121 2.95541 246.124 3.64382C246.124 4.09994 246.214 4.55159 246.389 4.97283C246.565 5.39407 246.822 5.77662 247.146 6.09855C247.47 6.42048 247.855 6.67545 248.278 6.84883C248.702 7.02221 249.155 7.11058 249.613 7.10889Z" fill="black"/>
<path d="M288.428 0.165283V38.5121H282.339V36.048C281.219 37.1196 279.894 37.9558 278.443 38.5069C276.992 39.0581 275.445 39.313 273.893 39.2564C265.165 39.2821 260.285 32.4931 260.285 25.1651C260.285 17.8371 265.229 11.0482 273.958 11.0482C275.509 10.9916 277.056 11.2465 278.507 11.7977C279.958 12.3488 281.283 13.185 282.403 14.2566V0.165283H288.428ZM274.267 16.6179C269.49 16.6179 266.285 20.468 266.285 25.1523C266.285 29.8366 269.503 33.6353 274.267 33.6353C276.53 33.6353 278.702 32.7389 280.302 31.1432C281.903 29.5475 282.802 27.3833 282.802 25.1266C282.802 22.87 281.903 20.7058 280.302 19.1101C278.702 17.5144 276.53 16.6179 274.267 16.6179Z" fill="black"/>
<path d="M315.465 31.4029H322.082C321.082 33.977 319.308 36.18 317.004 37.7101C314.699 39.2402 311.976 40.0226 309.208 39.9501C307.324 40.0136 305.448 39.6929 303.693 39.0077C301.938 38.3226 300.342 37.2874 299.003 35.9656C297.664 34.6438 296.609 33.0634 295.905 31.321C295.2 29.5787 294.859 27.7113 294.904 25.8332C294.839 23.9737 295.155 22.1205 295.835 20.3875C296.515 18.6545 297.543 17.0785 298.856 15.7562C300.169 14.4339 301.74 13.3934 303.471 12.6986C305.203 12.0039 307.058 11.6695 308.924 11.7162C316.907 11.7162 322.533 17.7993 322.533 25.5893C322.584 26.3954 322.545 27.2046 322.417 28.002H301.161C301.474 29.8597 302.459 31.5387 303.93 32.7211C305.401 33.9036 307.256 34.5076 309.143 34.4188C310.367 34.4923 311.59 34.254 312.696 33.7264C313.801 33.1987 314.754 32.3992 315.465 31.4029ZM301.303 23.0868H316.044C315.819 21.3735 314.955 19.8076 313.624 18.7014C312.292 17.5953 310.591 17.0303 308.86 17.1191C304.959 17.1191 301.792 19.4805 301.277 23.0868H301.303Z" fill="black"/>
<path d="M335.536 11.6902V38.4611H329.459V11.6902H335.536Z" fill="black"/>
<path d="M332.935 7.10886C333.626 7.1114 334.302 6.90926 334.878 6.52808C335.454 6.14691 335.903 5.60387 336.169 4.96785C336.434 4.33182 336.505 3.63147 336.37 2.95563C336.236 2.27978 335.904 1.6589 335.415 1.17174C334.926 0.68457 334.303 0.353067 333.625 0.219281C332.947 0.0854945 332.245 0.155452 331.607 0.420276C330.969 0.6851 330.424 1.13287 330.042 1.70677C329.659 2.28067 329.456 2.95484 329.459 3.64379C329.459 4.56279 329.825 5.44415 330.477 6.09398C331.129 6.74381 332.013 7.10886 332.935 7.10886Z" fill="black"/>
<path d="M350.92 0.165283V38.5121H344.844V0.165283H350.92Z" fill="black"/>
<path d="M358.941 34.9319C358.931 35.7435 359.164 36.5396 359.608 37.2193C360.053 37.899 360.691 38.4315 361.44 38.7492C362.189 39.0669 363.016 39.1555 363.816 39.0036C364.616 38.8518 365.352 38.4665 365.932 37.8965C366.504 37.3226 366.897 36.5962 367.065 35.8046C367.186 35.2096 367.172 34.5953 367.024 34.0064C366.876 33.4175 366.599 32.8689 366.211 32.4005C365.824 31.932 365.337 31.5556 364.785 31.2987C364.234 31.0417 363.631 30.9106 363.022 30.915C361.974 30.904 360.963 31.2994 360.201 32.0177C359.44 32.736 358.988 33.7211 358.941 34.7651V34.9319Z" fill="#ED2024"/>
<path opacity="0.4" d="M40.134 38.4095V23.2273C40.24 21.4412 39.6652 19.681 38.5247 18.2992C37.896 17.6734 37.1392 17.19 36.306 16.8822C35.4729 16.5744 34.5829 16.4492 33.6969 16.5154C32.7295 16.5077 31.7714 16.7025 30.8843 17.0872C29.9972 17.4718 29.201 18.0378 28.5471 18.7484C27.8148 19.5418 27.2478 20.472 26.8787 21.4854C26.5096 22.4987 26.346 23.575 26.3971 24.6519V38.4095H20.2947V23.2273C20.4071 21.4403 19.8316 19.6778 18.6854 18.2992C18.0581 17.6713 17.3016 17.1866 16.468 16.8786C15.6345 16.5706 14.7438 16.4466 13.8575 16.5154C12.889 16.4995 11.9283 16.6907 11.04 17.0758C10.1517 17.461 9.35649 18.0313 8.70778 18.7484C7.25618 20.3205 6.48783 22.4013 6.57063 24.5364V38.4095H0.481079V11.6514H6.57063V14.1155C7.61165 13.0129 8.88447 12.1534 10.2978 11.5987C11.7112 11.044 13.2301 10.8079 14.7458 10.9071C19.2604 10.9071 22.5176 12.4129 24.5175 15.4245C25.7073 13.9362 27.2345 12.7506 28.9735 11.9653C30.7126 11.1799 32.6138 10.8173 34.5208 10.9071C36.0722 10.8386 37.6215 11.0816 39.0767 11.6217C40.532 12.1619 41.8635 12.9881 42.9921 14.0513C44.0721 15.1528 44.913 16.4642 45.4623 17.9038C46.0116 19.3434 46.2576 20.8803 46.185 22.4188V38.4095H40.134Z" fill="black"/>
<path opacity="0.4" d="M65.4838 10.9073C68.9095 10.7381 72.2927 11.7236 75.088 13.7051C76.2793 14.6285 77.23 15.8244 77.8597 17.1915C78.4894 18.5586 78.7796 20.0567 78.7057 21.5592V38.4098H72.6161V35.9457C70.582 38.0889 67.5823 39.1541 63.6041 39.1541C60.7996 39.3082 58.0284 38.4872 55.7636 36.8312C54.786 36.0256 54.013 35.0013 53.5074 33.8417C53.0019 32.682 52.778 31.4199 52.854 30.1577C52.7742 28.2775 53.4243 26.439 54.6693 25.0243C55.8589 23.7195 57.3941 22.7764 59.0981 22.3036C61.0531 21.777 63.0726 21.5265 65.0975 21.5592H72.629C72.6861 20.8006 72.5339 20.0409 72.189 19.3622C71.844 18.6836 71.3195 18.112 70.6721 17.7091C69.1146 16.7976 67.3269 16.3521 65.5224 16.4258C61.8747 16.4258 59.5959 17.5722 58.6861 19.8652H52.1846C52.8535 17.096 54.5753 14.6941 56.9867 13.166C59.5355 11.5988 62.4905 10.8133 65.4838 10.9073ZM72.6161 27.8605V26.4488H65.0331C60.9649 26.4488 58.9307 27.7322 58.9307 30.1706C58.9112 30.7333 59.04 31.2913 59.3043 31.789C59.5686 32.2866 59.9592 32.7065 60.437 33.0068C61.6847 33.7412 63.1231 34.0896 64.5697 34.0078C66.6308 34.103 68.6676 33.5313 70.376 32.3779C71.0979 31.8711 71.681 31.1922 72.0722 30.4031C72.4635 29.6141 72.6505 28.74 72.6161 27.8605Z" fill="black"/>
<path opacity="0.4" d="M107.338 0.0759277H113.441V38.4099H107.338V35.9458C106.237 37.044 104.915 37.8976 103.46 38.4505C102.004 39.0035 100.448 39.2433 98.8926 39.1542C97.0248 39.2372 95.1618 38.9074 93.4368 38.1886C91.7119 37.4697 90.1677 36.3796 88.915 34.9962C86.4616 32.2727 85.1365 28.7226 85.2072 25.063C85.1271 21.3786 86.4522 17.8012 88.915 15.0527C90.1684 13.6709 91.713 12.5827 93.438 11.8661C95.163 11.1494 97.0257 10.822 98.8926 10.9075C100.448 10.8185 102.004 11.0583 103.46 11.6112C104.915 12.1642 106.237 13.0178 107.338 14.1159V0.0759277ZM105.124 31.3258C105.964 30.5219 106.618 29.5451 107.04 28.4635C107.463 27.3818 107.643 26.2214 107.57 25.063C107.642 23.897 107.461 22.7292 107.039 21.6394C106.617 20.5496 105.964 19.5636 105.124 18.7488C103.545 17.2772 101.453 16.4763 99.2917 16.5158C98.2099 16.4847 97.1345 16.6917 96.142 17.122C95.1496 17.5523 94.2645 18.1954 93.5497 19.0055C92.049 20.663 91.2427 22.8308 91.2967 25.063C91.2494 27.2709 92.0561 29.4123 93.5497 31.0434C94.2628 31.8556 95.1475 32.5002 96.1404 32.9307C97.1333 33.3612 98.2095 33.5669 99.2917 33.5331C101.449 33.5768 103.539 32.7857 105.124 31.3258Z" fill="black"/>
<path opacity="0.4" d="M134.825 33.5334C136.041 33.6344 137.263 33.4191 138.371 32.9085C139.479 32.3979 140.435 31.6094 141.146 30.6202H147.75C146.808 33.1842 145.055 35.3733 142.755 36.8573C140.399 38.3915 137.638 39.1912 134.825 39.1545C132.924 39.2206 131.029 38.8984 129.258 38.2076C127.487 37.5168 125.876 36.472 124.525 35.1376C123.178 33.8211 122.12 32.2402 121.418 30.4951C120.715 28.75 120.384 26.8785 120.444 24.9991C120.397 23.1316 120.729 21.2739 121.422 19.538C122.115 17.8022 123.153 16.2241 124.474 14.899C125.778 13.5691 127.345 12.524 129.076 11.8303C130.807 11.1366 132.664 10.8093 134.528 10.8693C136.346 10.8122 138.155 11.1369 139.839 11.8223C141.522 12.5077 143.042 13.5385 144.3 14.8477C145.572 16.1553 146.569 17.703 147.232 19.4C147.895 21.097 148.211 22.909 148.162 24.7296C148.186 25.5356 148.148 26.3422 148.046 27.1423H126.83C127.123 28.9665 128.098 30.6125 129.559 31.7496C131.053 32.9364 132.915 33.5672 134.825 33.5334ZM134.528 16.3492C132.696 16.2953 130.901 16.8707 129.443 17.9791C128.761 18.4997 128.189 19.15 127.76 19.8923C127.331 20.6347 127.054 21.4544 126.945 22.304H141.725C141.494 20.6085 140.641 19.0585 139.331 17.9534C137.978 16.8564 136.271 16.2863 134.528 16.3492Z" fill="black"/>
<path opacity="0.4" d="M167.873 0.0759277H174.027V14.1159C175.128 13.0171 176.449 12.1631 177.905 11.6101C179.361 11.0571 180.917 10.8176 182.473 10.9075C184.339 10.8229 186.202 11.1507 187.927 11.8673C189.651 12.5839 191.196 13.6717 192.45 15.0527C194.913 17.8012 196.238 21.3786 196.158 25.063C196.229 28.7226 194.904 32.2727 192.45 34.9962C191.197 36.3789 189.653 37.4685 187.928 38.1873C186.203 38.9061 184.34 39.2363 182.473 39.1542C180.917 39.2441 179.361 39.0046 177.905 38.4516C176.449 37.8986 175.128 37.0446 174.027 35.9458V38.4099H167.925L167.873 0.0759277ZM176.177 18.7488C175.342 19.5663 174.692 20.553 174.272 21.6424C173.852 22.7317 173.672 23.8982 173.744 25.063C173.671 26.2201 173.851 27.3793 174.271 28.4604C174.691 29.5416 175.341 30.5192 176.177 31.3258C177.768 32.7842 179.861 33.5748 182.022 33.5331C183.104 33.566 184.18 33.3599 185.173 32.9294C186.165 32.499 187.05 31.8549 187.764 31.0434C189.248 29.4076 190.05 27.2682 190.004 25.063C190.056 22.8334 189.255 20.6677 187.764 19.0055C187.048 18.1968 186.163 17.5546 185.171 17.1244C184.178 16.6942 183.104 16.4864 182.022 16.5158C179.857 16.4784 177.762 17.2788 176.177 18.7488Z" fill="black"/>
<path opacity="0.4" d="M210.873 37.8326L199.029 11.6521H205.814L214.272 30.3892L222.666 11.6521H229.103L216.345 39.886C215.25 42.5175 213.923 45.047 212.38 47.445C211.701 48.2298 210.864 48.8638 209.924 49.3059C208.983 49.748 207.96 49.9885 206.921 50.0117C206.419 50.0117 205.865 50.0759 205.247 50.0759H201.977V44.7499H204.333C205.459 44.8018 206.566 44.4564 207.462 43.7746C208.492 42.7508 209.287 41.5159 209.792 40.1555L210.873 37.8326Z" fill="black"/>
</svg>
