<svg width="457" height="51" viewBox="0 0 457 51" fill="none" xmlns="http://www.w3.org/2000/svg">
<path d="M341.989 12.1689V38.7703H335.937V12.1689H341.989Z" fill="black"/>
<path d="M339.405 7.6148C340.09 7.6148 340.761 7.41202 341.331 7.0321C341.901 6.65218 342.346 6.11218 342.608 5.4804C342.871 4.84861 342.939 4.15342 342.805 3.48272C342.672 2.81202 342.341 2.19595 341.857 1.7124C341.372 1.22885 340.754 0.899554 340.081 0.766144C339.409 0.632733 338.711 0.701207 338.078 0.962901C337.444 1.22459 336.903 1.66775 336.522 2.23634C336.141 2.80493 335.937 3.47342 335.937 4.15725C335.936 4.61178 336.024 5.06214 336.198 5.48239C336.371 5.90264 336.627 6.28447 336.949 6.60587C337.271 6.92727 337.654 7.18188 338.076 7.35504C338.497 7.5282 338.949 7.61648 339.405 7.6148Z" fill="black"/>
<path d="M377.981 0.712102V38.8216H371.929V36.3848C370.816 37.4501 369.499 38.2814 368.057 38.8293C366.615 39.3772 365.078 39.6306 363.536 39.5744C354.861 39.5744 349.947 32.8507 349.947 25.5401C349.947 18.2295 354.861 11.5058 363.536 11.5058C365.078 11.4512 366.617 11.7066 368.059 12.2568C369.5 12.8069 370.817 13.6406 371.929 14.7081V0.673828L377.981 0.712102ZM363.907 17.0685C359.16 17.0685 355.974 20.896 355.974 25.5528C355.974 30.2097 359.173 33.9862 363.907 33.9862C365.019 34.0298 366.127 33.8397 367.161 33.4282C368.194 33.0168 369.129 32.3931 369.905 31.5977C370.681 30.8024 371.28 29.8531 371.664 28.8117C372.048 27.7703 372.208 26.6599 372.134 25.5528C372.207 24.4468 372.048 23.3376 371.667 22.2964C371.286 21.2551 370.691 20.3047 369.92 19.506C369.149 18.7074 368.219 18.078 367.19 17.6582C366.162 17.2385 365.056 17.0376 363.945 17.0685H363.907Z" fill="black"/>
<path d="M404.85 31.7662H411.427C410.433 34.3252 408.67 36.5153 406.38 38.0364C404.089 39.5575 401.383 40.3354 398.632 40.2633C396.76 40.3264 394.895 40.0076 393.151 39.3264C391.407 38.6453 389.821 37.6162 388.49 36.3021C387.159 34.9881 386.111 33.4169 385.411 31.6847C384.71 29.9526 384.372 28.0961 384.417 26.229C384.352 24.3804 384.666 22.538 385.342 20.8152C386.017 19.0924 387.039 17.5256 388.344 16.211C389.649 14.8965 391.21 13.8621 392.931 13.1714C394.652 12.4807 396.496 12.1483 398.35 12.1947C406.283 12.1947 411.875 18.2294 411.875 25.9866C411.905 26.7945 411.845 27.6034 411.695 28.3979H390.635C390.946 30.2448 391.925 31.9139 393.387 33.0894C394.849 34.265 396.692 34.8654 398.568 34.7772C399.786 34.8525 401.003 34.6152 402.103 34.0881C403.202 33.561 404.148 32.7616 404.85 31.7662ZM390.776 23.4987H405.426C405.203 21.7955 404.344 20.2387 403.021 19.1391C401.697 18.0394 400.007 17.4777 398.286 17.566C394.41 17.566 391.262 19.9136 390.75 23.4987H390.776Z" fill="black"/>
<path d="M424.797 12.1689V38.7703H418.758V12.1689H424.797Z" fill="black"/>
<path d="M422.213 7.61477C422.899 7.6173 423.571 7.41667 424.143 7.03829C424.715 6.65991 425.161 6.1208 425.425 5.48924C425.69 4.85769 425.76 4.16209 425.628 3.49055C425.496 2.81902 425.166 2.20175 424.682 1.71692C424.198 1.2321 423.58 0.901532 422.907 0.767084C422.234 0.632637 421.536 0.700356 420.902 0.961671C420.267 1.22299 419.725 1.66614 419.343 2.235C418.962 2.80386 418.758 3.47285 418.758 4.15723C418.758 5.07202 419.122 5.94953 419.769 6.59758C420.417 7.24563 421.295 7.6114 422.213 7.61477Z" fill="black"/>
<path d="M440.088 0.71167V38.8212H434.048V0.71167H440.088Z" fill="black"/>
<path d="M448.059 35.275C448.048 36.0795 448.275 36.8694 448.711 37.546C449.156 38.2196 449.791 38.7472 450.535 39.0626C451.279 39.3781 452.1 39.4675 452.895 39.3195C453.693 39.1645 454.428 38.7785 455.006 38.2095C455.58 37.643 455.972 36.9191 456.132 36.1298C456.283 35.341 456.199 34.5254 455.889 33.7839C455.58 33.0424 455.06 32.4075 454.392 31.9578C453.721 31.5034 452.926 31.2672 452.115 31.2816C451.072 31.2675 450.065 31.6594 449.307 32.3742C448.55 33.089 448.102 34.0702 448.059 35.1092V35.275Z" fill="#ED2024"/>
<path opacity="0.4" d="M26.4913 19.7731C26.538 20.8555 26.2858 21.9299 25.7624 22.8792C25.239 23.8286 24.4644 24.6165 23.5229 25.1572C24.5231 25.7265 25.3506 26.5545 25.9181 27.5538C26.4856 28.5531 26.772 29.6866 26.7472 30.8347C26.7322 32.0636 26.4052 33.2687 25.7966 34.3374C25.188 35.4061 24.3177 36.3036 23.267 36.946C20.5739 38.6754 17.4082 39.5271 14.2082 39.3829C10.9786 39.5366 7.77987 38.6946 5.04707 36.9715C2.78932 35.4652 1.21016 33.1399 0.64563 30.4902H7.31178C8.27566 32.8973 10.6896 34.1009 14.5537 34.1009C16.0619 34.1527 17.5574 33.8096 18.8912 33.1057C19.3935 32.8866 19.8241 32.5312 20.134 32.0801C20.4439 31.629 20.6206 31.1003 20.644 30.554C20.6583 30.1429 20.5727 29.7344 20.3944 29.3635C20.2162 28.9925 19.9507 28.6699 19.6205 28.4234C18.7985 27.8968 17.8327 27.6382 16.8568 27.6834H10.4593V22.7586H16.6648C17.635 22.8078 18.5952 22.5438 19.4029 22.0059C19.7267 21.7578 19.9862 21.4361 20.1598 21.0677C20.3334 20.6993 20.4161 20.2948 20.4009 19.888C20.387 19.351 20.2242 18.8283 19.9306 18.3779C19.637 17.9275 19.2241 17.567 18.7376 17.3363C17.4351 16.6361 15.9683 16.2969 14.4897 16.3539C10.9157 16.3539 8.57848 17.4256 7.47811 19.569H0.86316C1.57726 17.0679 3.16586 14.9045 5.34135 13.4704C8.04531 11.7979 11.1967 10.9878 14.3746 11.1484C17.3165 11.1101 20.215 11.8591 22.768 13.3173C23.9297 13.9412 24.8937 14.8761 25.5515 16.0166C26.2093 17.1571 26.5348 18.4581 26.4913 19.7731Z" fill="black"/>
<path opacity="0.4" d="M40.2204 50.3295H34.13V11.8117H40.2204V14.3634C41.3263 13.2683 42.6507 12.4174 44.1077 11.8657C45.5647 11.314 47.1217 11.0739 48.6778 11.161C50.543 11.0769 52.4037 11.4051 54.1268 12.1219C55.8499 12.8388 57.3928 13.9266 58.645 15.3075C61.0997 18.0373 62.4255 21.5933 62.3555 25.2591C62.4322 28.9413 61.1063 32.5156 58.645 35.2617C57.3934 36.6442 55.851 37.734 54.1279 38.453C52.4049 39.172 50.5438 39.5025 48.6778 39.421C47.1206 39.5088 45.5623 39.2678 44.1048 38.7138C42.6474 38.1598 41.3238 37.3051 40.2204 36.2059V50.3295ZM42.4339 18.9436C41.5956 19.7515 40.9429 20.731 40.521 21.8148C40.0991 22.8985 39.918 24.0605 39.9901 25.2208C39.9202 26.3847 40.1022 27.5499 40.5239 28.6374C40.9456 29.7249 41.597 30.7092 42.4339 31.5235C44.0159 32.9923 46.1071 33.7926 48.2684 33.7562C49.3573 33.7799 50.438 33.5635 51.4334 33.1224C52.4287 32.6813 53.314 32.0264 54.0261 31.2045C55.5146 29.5448 56.315 27.3831 56.2652 25.157C56.3058 22.9478 55.5058 20.8053 54.0261 19.1605C53.314 18.3387 52.4287 17.6838 51.4334 17.2427C50.438 16.8016 49.3573 16.5851 48.2684 16.6088C46.0947 16.6093 44.0049 17.4456 42.4339 18.9436Z" fill="black"/>
<path opacity="0.4" d="M82.1234 11.1235C84.0145 11.0688 85.8971 11.398 87.6567 12.091C89.4163 12.7841 91.0162 13.8266 92.3593 15.1552C93.7027 16.4703 94.7597 18.0475 95.4642 19.7884C96.1687 21.5292 96.5055 23.3962 96.4537 25.2727C96.5022 27.1423 96.1623 29.0017 95.4555 30.734C94.7487 32.4664 93.6902 34.0343 92.3465 35.3391C91.004 36.6694 89.4045 37.7139 87.645 38.4091C85.8854 39.1043 84.0026 39.4359 82.1106 39.3835C80.2213 39.4333 78.3412 39.1031 76.5826 38.4126C74.824 37.7221 73.2229 36.6855 71.8747 35.3646C70.5224 34.0603 69.4576 32.4892 68.7482 30.7516C68.0388 29.014 67.7005 27.148 67.7548 25.2727C67.704 23.394 68.0438 21.5252 68.7528 19.784C69.4619 18.0427 70.5248 16.4667 71.8747 15.1552C73.2233 13.8305 74.826 12.7906 76.587 12.0978C78.348 11.4051 80.231 11.0737 82.1234 11.1235ZM82.1234 33.7571C83.2244 33.7945 84.321 33.6003 85.3417 33.187C86.3624 32.7737 87.2843 32.1507 88.0475 31.3585C88.8145 30.5454 89.4129 29.5892 89.8081 28.5448C90.2033 27.5004 90.3877 26.3884 90.3505 25.2727C90.3914 24.1508 90.2089 23.032 89.8136 21.9808C89.4183 20.9297 88.818 19.9671 88.0475 19.1486C87.2869 18.3521 86.3658 17.7254 85.3447 17.3098C84.3235 16.8941 83.2257 16.699 82.1234 16.7373C81.0219 16.7081 79.9266 16.91 78.9083 17.3297C77.89 17.7495 76.9715 18.3779 76.2122 19.1741C75.4303 19.9823 74.8182 20.9381 74.4117 21.9853C74.0053 23.0326 73.8126 24.1502 73.8451 25.2727C73.8152 26.3872 74.0092 27.4964 74.4157 28.535C74.8222 29.5736 75.433 30.5206 76.2122 31.3202C76.97 32.1184 77.8883 32.748 78.9069 33.1679C79.9256 33.5879 81.0216 33.7886 82.1234 33.7571Z" fill="black"/>
<path opacity="0.4" d="M117.194 12.2713C118.988 12.2292 120.77 12.5552 122.432 13.229C124.094 13.9028 125.599 14.91 126.854 16.1881C128.127 17.4506 129.129 18.9577 129.799 20.6179C130.47 22.2781 130.796 24.0568 130.757 25.8463C130.797 27.6483 130.455 29.4384 129.751 31.0987C129.048 32.7591 127.999 34.2519 126.675 35.4789C125.342 36.7615 123.766 37.7671 122.04 38.4373C120.313 39.1075 118.47 39.4289 116.618 39.383C114.672 39.4871 112.728 39.1548 110.928 38.4107C109.128 37.6667 107.518 36.5297 106.216 35.0834C103.725 32.217 102.48 28.2023 102.48 23.0394C102.48 16.7793 103.418 12.1012 105.295 9.0051C106.259 7.44858 107.591 6.15182 109.175 5.22865C110.759 4.30547 112.546 3.78412 114.379 3.71034L119.318 3.18724C120.453 3.12435 121.566 2.84272 122.594 2.35794C122.967 2.14341 123.289 1.85113 123.539 1.50103C123.788 1.15094 123.959 0.751283 124.039 0.329346H130.13C130.047 2.43429 129.186 4.43415 127.711 5.94307C126.015 7.38031 123.895 8.22687 121.672 8.35442L115.07 9.03062C113.185 9.13432 111.412 9.95653 110.119 11.3271C108.955 12.6518 108.27 14.3275 108.174 16.0861C110.119 13.5216 113.087 12.2713 117.194 12.2713ZM110.873 31.5238C111.631 32.2631 112.53 32.842 113.517 33.2257C114.504 33.6094 115.559 33.7899 116.618 33.7565C117.677 33.7885 118.732 33.6072 119.719 33.2236C120.706 32.84 121.605 32.2618 122.363 31.5238C123.118 30.7865 123.713 29.9017 124.109 28.9247C124.505 27.9478 124.695 26.8997 124.666 25.8463C124.699 24.7886 124.511 23.7357 124.114 22.7541C123.718 21.7725 123.122 20.8835 122.363 20.1432C121.608 19.3994 120.71 18.8158 119.723 18.4277C118.735 18.0395 117.679 17.8549 116.618 17.885C115.557 17.8535 114.501 18.0374 113.513 18.4256C112.526 18.8138 111.627 19.3982 110.873 20.1432C110.115 20.8835 109.519 21.7725 109.122 22.7541C108.726 23.7357 108.538 24.7886 108.57 25.8463C108.542 26.8997 108.731 27.9478 109.128 28.9247C109.524 29.9017 110.118 30.7865 110.873 31.5238Z" fill="black"/>
<path opacity="0.4" d="M140.417 11.8123H162.667V38.605H156.59V17.1963H146.533V23.1035C146.549 24.8949 146.442 26.6852 146.213 28.4621C145.971 30.1168 145.542 31.739 144.934 33.2975C144.358 34.9048 143.276 36.2833 141.85 37.2271C140.245 38.2085 138.383 38.6884 136.502 38.605H134.263V32.953H135.824C136.756 32.9792 137.665 32.6663 138.383 32.0727C139.096 31.3841 139.578 30.4931 139.765 29.521C139.987 28.5194 140.149 27.5054 140.251 26.4845C140.327 25.6042 140.366 24.4687 140.366 23.0525L140.417 11.8123Z" fill="black"/>
<path opacity="0.4" d="M184.048 33.7563C185.265 33.8582 186.488 33.6424 187.596 33.1301C188.704 32.6179 189.66 31.8268 190.368 30.8346H196.983C196.037 33.403 194.282 35.5964 191.98 37.0863C189.624 38.6214 186.862 39.421 184.048 39.3828C182.158 39.4385 180.276 39.111 178.516 38.4201C176.757 37.7293 175.156 36.6896 173.812 35.3639C172.467 34.0452 171.41 32.4634 170.708 30.7179C170.005 28.9724 169.672 27.1008 169.73 25.2209C169.678 23.3633 170.003 21.5143 170.685 19.7846C171.366 18.055 172.391 16.4802 173.697 15.1545C175.002 13.8253 176.57 12.7808 178.301 12.0868C180.032 11.3928 181.889 11.0646 183.753 11.1228C185.571 11.0675 187.381 11.3932 189.065 12.0789C190.748 12.7646 192.269 13.795 193.529 15.1034C194.796 16.4139 195.789 17.9634 196.448 19.6614C197.107 21.3593 197.42 23.1713 197.367 24.9913C197.391 25.7968 197.353 26.603 197.252 27.4026H176.038C176.334 29.2279 177.312 30.8737 178.776 32.0084C180.274 33.1886 182.139 33.8072 184.048 33.7563ZM183.753 16.5579C181.907 16.4967 180.098 17.0787 178.635 18.2038C177.941 18.7177 177.356 19.3652 176.917 20.108C176.477 20.8509 176.192 21.674 176.076 22.5289H190.855C190.65 20.8547 189.84 19.3123 188.577 18.191C187.222 17.079 185.507 16.4983 183.753 16.5579Z" fill="black"/>
<path opacity="0.4" d="M224.851 11.8123H230.954V38.605H224.851V27.7986H210.546V38.605H204.456V11.8123H210.546V22.4145H224.851V11.8123Z" fill="black"/>
<path opacity="0.4" d="M252.385 11.1235C254.276 11.0688 256.159 11.398 257.918 12.091C259.678 12.7841 261.278 13.8266 262.621 15.1552C263.967 16.4692 265.026 18.046 265.733 19.7868C266.439 21.5277 266.778 23.3953 266.728 25.2727C266.776 27.1423 266.437 29.0017 265.73 30.734C265.023 32.4664 263.965 34.0343 262.621 35.3391C261.278 36.6694 259.679 37.7139 257.919 38.4091C256.16 39.1043 254.277 39.4359 252.385 39.3835C250.496 39.4333 248.616 39.1031 246.857 38.4126C245.098 37.7221 243.497 36.6855 242.149 35.3646C240.801 34.0578 239.74 32.4859 239.033 30.7487C238.326 29.0115 237.988 27.1467 238.042 25.2727C237.992 23.3953 238.331 21.5277 239.037 19.7868C239.744 18.046 240.803 16.4692 242.149 15.1552C243.496 13.832 245.097 12.7931 246.855 12.1004C248.614 11.4077 250.495 11.0755 252.385 11.1235ZM252.385 33.7571C253.486 33.7945 254.583 33.6003 255.603 33.187C256.624 32.7737 257.546 32.1507 258.309 31.3585C259.076 30.5454 259.674 29.5892 260.07 28.5448C260.465 27.5004 260.649 26.3884 260.612 25.2727C260.653 24.1508 260.47 23.032 260.075 21.9808C259.68 20.9297 259.08 19.9671 258.309 19.1486C257.548 18.3521 256.627 17.7254 255.606 17.3098C254.585 16.8941 253.487 16.699 252.385 16.7373C251.283 16.7081 250.188 16.91 249.17 17.3297C248.152 17.7495 247.233 18.3779 246.474 19.1741C245.692 19.9823 245.08 20.9381 244.673 21.9853C244.267 23.0326 244.074 24.1502 244.107 25.2727C244.077 26.3872 244.271 27.4964 244.677 28.535C245.084 29.5736 245.695 30.5206 246.474 31.3202C247.232 32.1184 248.15 32.748 249.168 33.1679C250.187 33.5879 251.283 33.7886 252.385 33.7571Z" fill="black"/>
<path opacity="0.4" d="M308.721 25.1567C309.707 25.7726 310.509 26.6406 311.045 27.6705C311.58 28.7004 311.829 29.8545 311.766 31.0128C311.791 32.0298 311.598 33.0405 311.201 33.9775C310.804 34.9146 310.212 35.7567 309.463 36.4479C307.647 37.9952 305.295 38.7695 302.912 38.6041H286.471V11.8113H302.631C305.021 11.6447 307.382 12.4187 309.207 13.9675C309.957 14.6702 310.548 15.524 310.94 16.4722C311.333 17.4204 311.519 18.4411 311.485 19.4664C311.54 20.5699 311.316 21.6696 310.833 22.664C310.35 23.6585 309.624 24.5157 308.721 25.1567ZM292.574 22.7581H301.825C304.204 22.7581 305.382 21.7757 305.382 19.8364C305.382 17.8971 304.204 16.9147 301.825 16.9147H292.574V22.7581ZM292.574 33.5262H302.106C304.486 33.5262 305.676 32.5566 305.676 30.6046C305.676 28.6525 304.486 27.6829 302.106 27.6829H292.574V33.5262Z" fill="black"/>
</svg>
