<svg width="368" height="50" viewBox="0 0 368 50" fill="none" xmlns="http://www.w3.org/2000/svg">
<path d="M252.491 11.6143V38.3852H246.401V11.6143H252.491Z" fill="white"/>
<path d="M249.89 7.03296C250.581 7.03296 251.256 6.82866 251.83 6.44594C252.404 6.06321 252.851 5.51927 253.115 4.88301C253.379 4.24676 253.447 3.54683 253.311 2.87183C253.176 2.19684 252.842 1.57715 252.353 1.09127C251.864 0.605392 251.241 0.275162 250.563 0.14242C249.885 0.00967655 249.184 0.0803847 248.546 0.345588C247.909 0.610792 247.365 1.05857 246.983 1.6322C246.601 2.20582 246.399 2.87949 246.401 3.56789C246.401 4.02401 246.492 4.47566 246.667 4.8969C246.843 5.31814 247.1 5.70069 247.424 6.02262C247.748 6.34455 248.133 6.59952 248.556 6.7729C248.979 6.94628 249.433 7.03465 249.89 7.03296Z" fill="white"/>
<path d="M288.706 0.0893555V38.4361H282.617V35.9721C281.496 37.0436 280.171 37.8799 278.721 38.431C277.27 38.9822 275.723 39.237 274.171 39.1805C265.442 39.2062 260.563 32.4172 260.563 25.0892C260.563 17.7612 265.507 10.9722 274.235 10.9722C275.787 10.9157 277.334 11.1706 278.785 11.7217C280.236 12.2729 281.561 13.1091 282.681 14.1806V0.0893555H288.706ZM274.544 16.542C269.768 16.542 266.562 20.3921 266.562 25.0764C266.562 29.7606 269.781 33.5594 274.544 33.5594C276.808 33.5594 278.979 32.6629 280.58 31.0672C282.181 29.4716 283.08 27.3073 283.08 25.0507C283.08 22.7941 282.181 20.6298 280.58 19.0342C278.979 17.4385 276.808 16.542 274.544 16.542Z" fill="white"/>
<path d="M315.742 31.327H322.36C321.36 33.9011 319.586 36.1041 317.281 37.6342C314.976 39.1643 312.254 39.9467 309.485 39.8742C307.602 39.9376 305.725 39.6169 303.97 38.9318C302.216 38.2466 300.62 37.2115 299.281 35.8897C297.941 34.5679 296.887 32.9874 296.182 31.2451C295.477 29.5028 295.137 27.6353 295.182 25.7572C295.116 23.8977 295.433 22.0445 296.113 20.3116C296.792 18.5786 297.82 17.0025 299.133 15.6803C300.447 14.358 302.017 13.3175 303.749 12.6227C305.48 11.9279 307.336 11.5936 309.202 11.6403C317.184 11.6403 322.81 17.7234 322.81 25.5134C322.862 26.3194 322.823 27.1287 322.694 27.9261H301.439C301.752 29.7838 302.737 31.4627 304.208 32.6452C305.679 33.8277 307.533 34.4317 309.421 34.3429C310.645 34.4164 311.867 34.1781 312.973 33.6504C314.079 33.1228 315.032 32.3232 315.742 31.327ZM301.581 23.0108H316.322C316.097 21.2976 315.233 19.7316 313.901 18.6255C312.57 17.5194 310.869 16.9544 309.138 17.0432C305.237 17.0432 302.07 19.4046 301.555 23.0108H301.581Z" fill="white"/>
<path d="M335.813 11.6143V38.3852H329.737V11.6143H335.813Z" fill="white"/>
<path d="M333.213 7.03294C333.904 7.03547 334.58 6.83334 335.156 6.45216C335.732 6.07098 336.181 5.52794 336.447 4.89192C336.712 4.25589 336.782 3.55554 336.648 2.8797C336.514 2.20386 336.181 1.58297 335.693 1.09581C335.204 0.608642 334.581 0.277139 333.903 0.143353C333.225 0.00956676 332.523 0.0795243 331.885 0.344348C331.246 0.609172 330.702 1.05694 330.319 1.63084C329.937 2.20474 329.734 2.87892 329.737 3.56787C329.737 4.48686 330.103 5.36822 330.755 6.01805C331.407 6.66788 332.291 7.03294 333.213 7.03294Z" fill="white"/>
<path d="M351.198 0.0893555V38.4361H345.122V0.0893555H351.198Z" fill="white"/>
<path d="M359.219 34.856C359.209 35.6675 359.441 36.4637 359.886 37.1434C360.331 37.823 360.969 38.3556 361.718 38.6733C362.467 38.991 363.294 39.0795 364.094 38.9277C364.894 38.7759 365.63 38.3905 366.21 37.8206C366.782 37.2467 367.175 36.5203 367.343 35.7287C367.463 35.1337 367.449 34.5194 367.302 33.9305C367.154 33.3416 366.877 32.793 366.489 32.3245C366.102 31.8561 365.615 31.4797 365.063 31.2227C364.511 30.9658 363.909 30.8347 363.3 30.8391C362.252 30.8281 361.24 31.2234 360.479 31.9418C359.717 32.6601 359.266 33.6452 359.219 34.6892V34.856Z" fill="#ED2024"/>
<path opacity="0.4" d="M40.4119 38.3336V23.1514C40.5178 21.3652 39.943 19.605 38.8026 18.2233C38.1738 17.5974 37.417 17.1141 36.5839 16.8063C35.7507 16.4984 34.8608 16.3733 33.9747 16.4394C33.0074 16.4318 32.0492 16.6266 31.1621 17.0112C30.2751 17.3959 29.4788 17.9618 28.825 18.6725C28.0927 19.4658 27.5256 20.3961 27.1565 21.4095C26.7875 22.4228 26.6238 23.4991 26.6749 24.576V38.3336H20.5725V23.1514C20.685 21.3644 20.1094 19.6019 18.9632 18.2233C18.336 17.5953 17.5794 17.1106 16.7459 16.8026C15.9123 16.4947 15.0216 16.3707 14.1353 16.4394C13.1668 16.4236 12.2061 16.6147 11.3178 16.9999C10.4296 17.3851 9.63432 17.9554 8.98561 18.6725C7.53401 20.2445 6.76566 22.3254 6.84846 24.4604V38.3336H0.758911V11.5755H6.84846V14.0396C7.88948 12.9369 9.1623 12.0775 10.5757 11.5228C11.989 10.9681 13.508 10.7319 15.0237 10.8312C19.5383 10.8312 22.7955 12.337 24.7953 15.3486C25.9851 13.8603 27.5123 12.6747 29.2514 11.8893C30.9904 11.104 32.8916 10.7413 34.7986 10.8312C36.35 10.7626 37.8993 11.0057 39.3546 11.5458C40.8098 12.086 42.1413 12.9122 43.27 13.9754C44.35 15.0769 45.1908 16.3883 45.7401 17.8279C46.2894 19.2674 46.5354 20.8044 46.4628 22.3429V38.3336H40.4119Z" fill="white"/>
<path opacity="0.4" d="M65.7616 10.8314C69.1874 10.6622 72.5705 11.6477 75.3658 13.6291C76.5571 14.5526 77.5078 15.7484 78.1375 17.1155C78.7672 18.4826 79.0574 19.9808 78.9835 21.4833V38.3338H72.894V35.8698C70.8598 38.013 67.8601 39.0782 63.8819 39.0782C61.0774 39.2323 58.3063 38.4113 56.0415 36.7553C55.0639 35.9496 54.2909 34.9253 53.7853 33.7657C53.2797 32.6061 53.0558 31.3439 53.1319 30.0818C53.052 28.2016 53.7022 26.3631 54.9471 24.9484C56.1367 23.6436 57.672 22.7004 59.3759 22.2277C61.331 21.7011 63.3505 21.4505 65.3754 21.4833H72.9068C72.9639 20.7247 72.8117 19.9649 72.4668 19.2863C72.1219 18.6077 71.5973 18.036 70.9499 17.6332C69.3925 16.7217 67.6048 16.2762 65.8002 16.3499C62.1525 16.3499 59.8737 17.4963 58.9639 19.7893H52.4624C53.1313 17.0201 54.8531 14.6181 57.2645 13.0901C59.8134 11.5229 62.7683 10.7374 65.7616 10.8314ZM72.894 27.7846V26.3729H65.311C61.2427 26.3729 59.2086 27.6563 59.2086 30.0946C59.1891 30.6574 59.3179 31.2154 59.5822 31.7131C59.8465 32.2107 60.237 32.6306 60.7149 32.9309C61.9625 33.6653 63.4009 34.0137 64.8475 33.9319C66.9086 34.0271 68.9454 33.4553 70.6538 32.302C71.3757 31.7951 71.9588 31.1162 72.3501 30.3272C72.7413 29.5382 72.9283 28.6641 72.894 27.7846Z" fill="white"/>
<path opacity="0.4" d="M107.616 0H113.718V38.334H107.616V35.8699C106.515 36.9681 105.193 37.8216 103.737 38.3746C102.282 38.9275 100.725 39.1673 99.1703 39.0783C97.3026 39.1613 95.4395 38.8315 93.7146 38.1127C91.9897 37.3938 90.4455 36.3036 89.1927 34.9202C86.7394 32.1968 85.4142 28.6467 85.4849 24.987C85.4049 21.3027 86.73 17.7252 89.1927 14.9768C90.4462 13.595 91.9907 12.5068 93.7158 11.7901C95.4408 11.0735 97.3035 10.7461 99.1703 10.8316C100.725 10.7425 102.282 10.9824 103.737 11.5353C105.193 12.0883 106.515 12.9418 107.616 14.04V0ZM105.402 31.2498C106.242 30.446 106.896 29.4692 107.318 28.3876C107.74 27.3059 107.921 26.1454 107.848 24.987C107.92 23.821 107.739 22.6532 107.317 21.5635C106.895 20.4737 106.241 19.4877 105.402 18.6729C103.822 17.2013 101.731 16.4004 99.5694 16.4398C98.4876 16.4087 97.4122 16.6157 96.4198 17.0461C95.4273 17.4764 94.5423 18.1195 93.8275 18.9296C92.3268 20.5871 91.5205 22.7549 91.5745 24.987C91.5272 27.195 92.3339 29.3364 93.8275 30.9675C94.5405 31.7797 95.4253 32.4242 96.4182 32.8547C97.411 33.2852 98.4873 33.491 99.5694 33.4572C101.727 33.5009 103.817 32.7097 105.402 31.2498Z" fill="white"/>
<path opacity="0.4" d="M135.102 33.4575C136.319 33.5585 137.541 33.3432 138.649 32.8326C139.757 32.3219 140.713 31.5335 141.424 30.5443H148.028C147.086 33.1083 145.333 35.2974 143.033 36.7814C140.677 38.3156 137.916 39.1153 135.102 39.0786C133.202 39.1447 131.307 38.8225 129.536 38.1316C127.765 37.4408 126.154 36.3961 124.803 35.0617C123.456 33.7451 122.398 32.1643 121.695 30.4192C120.993 28.674 120.661 26.8026 120.722 24.9231C120.675 23.0556 121.007 21.198 121.7 19.4621C122.392 17.7263 123.43 16.1482 124.751 14.8231C126.056 13.4932 127.623 12.4481 129.354 11.7544C131.085 11.0606 132.942 10.7334 134.806 10.7934C136.624 10.7363 138.433 11.061 140.117 11.7464C141.8 12.4318 143.32 13.4626 144.578 14.7718C145.85 16.0793 146.846 17.6271 147.51 19.324C148.173 21.021 148.489 22.8331 148.44 24.6536C148.464 25.4597 148.426 26.2663 148.324 27.0664H127.107C127.401 28.8906 128.376 30.5366 129.837 31.6736C131.331 32.8605 133.193 33.4913 135.102 33.4575ZM134.806 16.2733C132.974 16.2193 131.178 16.7947 129.721 17.9032C129.039 18.4238 128.466 19.074 128.038 19.8164C127.609 20.5587 127.332 21.3784 127.223 22.2281H142.003C141.772 20.5326 140.919 18.9826 139.608 17.8775C138.256 16.7804 136.549 16.2104 134.806 16.2733Z" fill="white"/>
<path opacity="0.4" d="M168.151 0H174.305V14.04C175.405 12.9412 176.727 12.0872 178.183 11.5342C179.638 10.9812 181.195 10.7417 182.75 10.8316C184.617 10.747 186.48 11.0748 188.204 11.7914C189.929 12.508 191.474 13.5957 192.728 14.9768C195.191 17.7252 196.516 21.3027 196.436 24.987C196.506 28.6467 195.181 32.1968 192.728 34.9202C191.475 36.3029 189.93 37.3926 188.206 38.1114C186.481 38.8302 184.618 39.1604 182.75 39.0783C181.195 39.1682 179.638 38.9287 178.183 38.3757C176.727 37.8227 175.405 36.9687 174.305 35.8699V38.334H168.202L168.151 0ZM176.455 18.6729C175.619 19.4903 174.97 20.4771 174.55 21.5664C174.13 22.6558 173.95 23.8223 174.022 24.987C173.949 26.1442 174.129 27.3033 174.549 28.3845C174.969 29.4657 175.619 30.4433 176.455 31.2498C178.045 32.7082 180.139 33.4989 182.3 33.4572C183.382 33.4901 184.458 33.2839 185.45 32.8535C186.443 32.423 187.328 31.779 188.042 30.9675C189.526 29.3316 190.327 27.1923 190.282 24.987C190.334 22.7575 189.533 20.5918 188.042 18.9296C187.326 18.1209 186.44 17.4787 185.448 17.0485C184.456 16.6183 183.381 16.4105 182.3 16.4398C180.135 16.4024 178.04 17.2029 176.455 18.6729Z" fill="white"/>
<path opacity="0.4" d="M211.151 37.7567L199.307 11.5762H206.092L214.55 30.3132L222.944 11.5762H229.381L216.623 39.8101C215.527 42.4415 214.201 44.9711 212.657 47.3691C211.978 48.1539 211.142 48.7878 210.201 49.23C209.261 49.6721 208.238 49.9126 207.199 49.9358C206.697 49.9358 206.143 50 205.525 50H202.255V44.674H204.611C205.736 44.7258 206.844 44.3805 207.739 43.6987C208.77 42.6748 209.565 41.44 210.07 40.0796L211.151 37.7567Z" fill="white"/>
</svg>
