<svg xmlns="http://www.w3.org/2000/svg" xmlns:xlink="http://www.w3.org/1999/xlink"><symbol fill="currentColor" viewBox="0 0 7 11" id="angle"><path fill-rule="evenodd" clip-rule="evenodd" d="M.364.364a.9.9 0 0 1 1.272 0l4.5 4.5a.9.9 0 0 1 0 1.272l-4.5 4.5A.9.9 0 1 1 .364 9.364L4.227 5.5.364 1.636a.9.9 0 0 1 0-1.272Z"/></symbol><symbol fill="currentColor" viewBox="0 0 18 11" id="arrow"><path fill-rule="evenodd" clip-rule="evenodd" d="M11.764.264a.9.9 0 0 1 1.272 0l4.5 4.5a.9.9 0 0 1 0 1.272l-4.5 4.5a.9.9 0 1 1-1.272-1.272L14.727 6.3H.9a.9.9 0 1 1 0-1.8h13.827l-2.963-2.964a.9.9 0 0 1 0-1.272Z"/></symbol><symbol fill="currentColor" viewBox="0 0 25 24" id="close"><path fill-rule="evenodd" clip-rule="evenodd" d="M12.675 9.675 3 0 .78 2.22l9.674 9.675L1 21.35l2.22 2.22 9.455-9.454 9.454 9.454 2.22-2.22-9.454-9.455L24.57 2.22 22.35 0l-9.675 9.675Z"/></symbol><symbol fill="currentColor" viewBox="0 0 50 38" id="cookies"><path d="M32.793 0c-4.964 0-9.425 2.194-12.466 5.663 1.135.353 2.223.815 3.252 1.372a13.225 13.225 0 0 1 9.214-3.73c7.319 0 13.273 5.954 13.273 13.273 0 7.32-5.954 13.273-13.273 13.273-.313 0-.624-.012-.932-.033a18.188 18.188 0 0 1-1.625 3.14c.834.13 1.688.198 2.557.198 9.141 0 16.578-7.437 16.578-16.578C49.371 7.438 41.934 0 32.793 0V0Z"/><path d="M35.535 15.257a2.436 2.436 0 1 0 0 4.872 2.436 2.436 0 0 0 0-4.872ZM35.078 7.52a2.996 2.996 0 1 0-5.992 0 2.996 2.996 0 0 0 5.992 0ZM34.52 25.512a1.726 1.726 0 1 0 3.451 0 1.726 1.726 0 0 0-3.451 0ZM44.317 13.838a2.284 2.284 0 1 0-4.568 0 2.284 2.284 0 0 0 4.568 0ZM14.925 8.151C6.682 8.151 0 14.833 0 23.076 0 31.318 6.682 38 14.925 38s14.924-6.683 14.924-14.925c0-8.243-6.681-14.925-14.924-14.925ZM3.757 18.406a3.148 3.148 0 1 1 6.296.002 3.148 3.148 0 0 1-6.296-.002ZM8.732 30.59a2.335 2.335 0 1 1 0-4.67 2.335 2.335 0 0 1 0 4.67Zm5.482-7.514a2.436 2.436 0 1 1 4.873 0 2.436 2.436 0 0 1-4.873 0Zm4.163 10.66a1.726 1.726 0 1 1 0-3.451 1.726 1.726 0 0 1 0 3.452Zm.71-16.397a2.995 2.995 0 1 1 .002-5.99 2.995 2.995 0 0 1-.002 5.99Zm5.077 9.188a1.725 1.725 0 1 1 0-3.45 1.725 1.725 0 0 1 0 3.45Z"/></symbol><symbol fill="currentColor" viewBox="0 0 16 16" id="fire"><path d="M11.486 4.126c-1.096-1.287-1.096-2.445-1.164-2.88-.067-.435-.489-.161-.489-.161-3.287 2.254-3.083 5.66-3.166 6.724-.008.104-.117.172-.22.136-.922-.317-1.207-1.534-1.254-1.76-.05-.241-.113-.468-.253-.499C4.13 5.51 3 7.328 3 9.951 3 11.785 4.755 15 8.51 15 12.266 15 14 11.946 14 9.629c0-2.317-1.417-4.216-2.514-5.503ZM8.518 14.424c-2.353 0-1.792-3.153-1.688-2.897.41 1.01 1.272.912 1.383-.209.115-1.154.709-1.85.709-1.85.466 1.137.976 1.757 1.296 2.477.326.736.258 2.479-1.7 2.479Z"/></symbol><symbol fill="currentColor" viewBox="0 0 64 64" id="mark"><path d="M32 2a20 20 0 0 0-20 20c0 18 20 40 20 40s20-22 20-40A20 20 0 0 0 32 2zm0 28a8 8 0 1 1 8-8 8 8 0 0 1-8 8z"/></symbol><symbol fill="currentColor" viewBox="0 0 20 20" id="plus"><path d="M8.5 3.5h3v13h-3v-13Z"/><path d="M16.5 8.5v3h-13v-3h13Z"/></symbol><symbol fill="currentColor" viewBox="0 0 17 18" id="socials--facebook"><path d="M6.069 1.365a8.317 8.317 0 0 1 4.138-.28c2.192.39 4.172 1.751 5.375 3.617a8.153 8.153 0 0 1 1.288 3.715c.088.823.022 1.656-.134 2.466a8.02 8.02 0 0 1-1.479 3.319c-1.212 1.61-3.003 2.79-4.984 3.197v-5.917h1.614c.122-.774.242-1.55.366-2.323-.815-.003-1.63 0-2.445-.002V7.59c0-.382.16-.788.483-1.009.258-.167.574-.206.875-.212h1.431V4.331a12.785 12.785 0 0 0-1.995-.16c-.65.012-1.315.16-1.86.526a2.62 2.62 0 0 0-.988 1.207c-.196.48-.267 1.002-.27 1.518l-.001 1.734h-1.86v2.325h1.86v5.916a9.315 9.315 0 0 1-2.093-.606c-1.9-.806-3.448-2.386-4.26-4.279-.448-1.05-.66-2.191-.675-3.33a8.84 8.84 0 0 1 .243-1.969 8.271 8.271 0 0 1 5.37-5.849Z"/></symbol><symbol fill="currentColor" viewBox="0 0 18 18" id="socials--instagram"><path d="M17.324 5.414c-.039-.874-.18-1.475-.383-1.996a4.016 4.016 0 0 0-.951-1.46 4.051 4.051 0 0 0-1.457-.948C14.01.808 13.411.666 12.537.628 11.655.586 11.376.576 9.14.576c-2.234 0-2.514.01-3.392.048-.874.039-1.476.18-1.996.383a4.016 4.016 0 0 0-1.46.951c-.418.412-.743.91-.949 1.457C1.142 3.939 1 4.537.962 5.41.92 6.291.91 6.571.91 8.806c0 2.234.01 2.514.048 3.391.039.875.18 1.476.383 1.997.21.552.534 1.047.952 1.459.411.418.91.742 1.456.948.524.203 1.122.344 1.997.383.878.038 1.157.048 3.392.048s2.514-.01 3.392-.048c.875-.039 1.476-.18 1.997-.383a4.21 4.21 0 0 0 2.408-2.407c.203-.525.344-1.123.383-1.997.038-.877.048-1.157.048-3.391s-.003-2.514-.042-3.392Zm-1.482 6.719c-.036.804-.17 1.238-.283 1.527a2.73 2.73 0 0 1-1.563 1.562c-.29.113-.726.248-1.527.283-.868.039-1.128.048-3.324.048-2.197 0-2.46-.01-3.325-.048-.804-.035-1.238-.17-1.527-.283a2.533 2.533 0 0 1-.946-.614 2.558 2.558 0 0 1-.614-.945c-.112-.29-.247-.726-.283-1.527-.038-.868-.048-1.128-.048-3.324 0-2.196.01-2.46.048-3.324.036-.803.17-1.237.283-1.527.132-.357.341-.681.618-.945.266-.273.588-.482.945-.614.29-.112.727-.247 1.527-.283.868-.038 1.129-.048 3.325-.048 2.199 0 2.46.01 3.324.048.804.036 1.238.17 1.528.283.356.132.681.34.945.614.273.267.482.588.614.945.113.29.248.727.283 1.527.038.868.048 1.128.048 3.324 0 2.196-.01 2.453-.048 3.32Z"/><path d="M9.14 4.578a4.229 4.229 0 0 0-4.227 4.228 4.229 4.229 0 0 0 8.456 0 4.229 4.229 0 0 0-4.228-4.228Zm0 6.97a2.743 2.743 0 1 1 .001-5.486 2.743 2.743 0 0 1 0 5.486ZM14.524 4.411a.987.987 0 1 1-1.974 0 .987.987 0 0 1 1.974 0Z"/></symbol><symbol fill="currentColor" viewBox="0 0 16 16" id="star"><path d="M7.086 1.585c.347-.78 1.481-.78 1.828 0L10.07 4.18a1.99 1.99 0 0 0 1.639 1.16l2.889.269c.868.08 1.218 1.132.565 1.695l-2.176 1.872a1.913 1.913 0 0 0-.626 1.878l.631 2.76c.19.83-.728 1.48-1.479 1.048l-2.499-1.438a2.037 2.037 0 0 0-2.026 0l-2.499 1.438c-.75.432-1.669-.218-1.48-1.047l.632-2.76a1.913 1.913 0 0 0-.626-1.88L.838 7.305C.185 6.74.535 5.69 1.403 5.609l2.889-.268a1.99 1.99 0 0 0 1.64-1.161l1.154-2.595Z"/></symbol></svg>