<svg width="17" height="18" viewBox="0 0 17 18" xmlns="http://www.w3.org/2000/svg">
<path d="M6.06882 1.36525C7.39563 0.92553 8.83335 0.825231 10.2073 1.08461C12.3986 1.47485 14.3793 2.83619 15.5816 4.70201C16.3083 5.81028 16.7497 7.09856 16.8702 8.41739C16.9582 9.24004 16.8925 10.073 16.736 10.8833C16.5032 12.0823 15.9977 13.2291 15.2575 14.2015C14.0452 15.8123 12.2541 16.9923 10.2734 17.3991C10.2724 15.4267 10.2734 13.4546 10.2731 11.4825C10.8111 11.4815 11.3491 11.4825 11.8872 11.4818C12.0094 10.7077 12.1293 9.93283 12.2528 9.15867C11.4378 9.15568 10.6231 9.15834 9.80844 9.15734C9.80778 8.63459 9.80844 8.11184 9.80778 7.58943C9.80711 7.20716 9.96786 6.80098 10.2907 6.58013C10.5491 6.41307 10.8652 6.37421 11.1665 6.3679C11.6434 6.36658 12.1206 6.36824 12.5975 6.36724C12.5979 5.68873 12.5982 5.01022 12.5975 4.3317C11.9373 4.23273 11.2707 4.16664 10.6025 4.17196C9.95225 4.18391 9.28735 4.3317 8.74136 4.69803C8.30031 4.9883 7.95059 5.41407 7.75431 5.9046C7.5577 6.38451 7.48662 6.9066 7.4833 7.4227C7.48297 8.00092 7.48364 8.57913 7.48297 9.15734C6.86324 9.15767 6.24318 9.15701 5.62346 9.15767C5.62379 9.9325 5.62313 10.7073 5.62379 11.4821C6.24352 11.4821 6.86324 11.4818 7.48297 11.4821C7.4833 13.4543 7.4833 15.4264 7.48297 17.3985C6.76593 17.2736 6.05886 17.0809 5.38965 16.7923C3.48928 15.9856 1.94196 14.4064 1.1296 12.5134C0.682245 11.4639 0.470355 10.3217 0.455078 9.18325C0.463381 8.52068 0.542092 7.85844 0.698187 7.21413C1.14422 5.3596 2.27275 3.68441 3.80413 2.55157C4.49227 2.04343 5.25614 1.63493 6.06882 1.36525Z" />
</svg>
