<svg width="24" height="24" viewBox="0 0 24 24" fill="none" xmlns="http://www.w3.org/2000/svg">
<path d="M8.18801 0.615311C10.1232 -0.0260025 12.2203 -0.172284 14.2242 0.206009C17.4204 0.775158 20.3094 2.76061 22.063 5.48183C23.1229 7.0982 23.7668 8.9771 23.9425 10.9006C24.0709 12.1004 23.975 13.3152 23.7468 14.497C23.4072 16.2457 22.6699 17.9182 21.5903 19.3364C19.8221 21.6857 17.2096 23.4067 14.3207 24C14.3192 21.1233 14.3207 18.2471 14.3202 15.3709C15.1049 15.3694 15.8896 15.3709 16.6745 15.3699C16.8527 14.2409 17.0276 13.1108 17.2077 11.9817C16.019 11.9773 14.8307 11.9812 13.6425 11.9797C13.6415 11.2173 13.6425 10.4549 13.6415 9.69301C13.6405 9.13549 13.875 8.54309 14.3459 8.22099C14.7228 7.97734 15.1838 7.92067 15.6233 7.91146C16.3189 7.90954 17.0149 7.91196 17.7105 7.9105C17.7111 6.92092 17.7115 5.93135 17.7105 4.94175C16.7476 4.79741 15.7753 4.70102 14.8007 4.70878C13.8522 4.72621 12.8824 4.94175 12.0861 5.47603C11.4428 5.89938 10.9327 6.52034 10.6464 7.23576C10.3596 7.93569 10.256 8.69713 10.2511 9.44984C10.2506 10.2932 10.2516 11.1364 10.2506 11.9797C9.34672 11.9802 8.44232 11.9793 7.53842 11.9802C7.5389 13.1103 7.53794 14.2403 7.5389 15.3703C8.44282 15.3703 9.34672 15.3699 10.2506 15.3703C10.2511 18.2467 10.2511 21.1229 10.2506 23.9991C9.20479 23.817 8.17348 23.5359 7.19739 23.115C4.42558 21.9385 2.16871 19.6353 0.983834 16.8744C0.331338 15.3438 0.0222825 13.6779 0 12.0175C0.0121105 11.0512 0.126916 10.0854 0.35459 9.14565C1.00516 6.4409 2.65119 3.99771 4.88481 2.34551C5.88851 1.60441 7.00266 1.00863 8.18801 0.615311Z" fill="black"/>
</svg>
