<svg width="18" height="18" viewBox="0 0 18 18"  xmlns="http://www.w3.org/2000/svg">
<path d="M17.3241 5.41422C17.2855 4.53986 17.1441 3.93875 16.9415 3.41787C16.7325 2.86498 16.411 2.36997 15.9898 1.95847C15.5782 1.54057 15.0798 1.21584 14.5332 1.01015C14.0092 0.807602 13.4111 0.666207 12.5366 0.627657C11.6555 0.585841 11.3758 0.576172 9.14124 0.576172C6.90663 0.576172 6.62692 0.585841 5.74913 0.624392C4.8746 0.662942 4.27337 0.804462 3.75253 1.00689C3.1994 1.21584 2.7043 1.5373 2.29272 1.95847C1.87474 2.36997 1.55007 2.86824 1.34422 3.41474C1.14163 3.93875 1.00021 4.5366 0.961651 5.41096C0.919827 6.29185 0.910156 6.5715 0.910156 8.80568C0.910156 11.0399 0.919827 11.3195 0.958385 12.1971C0.996943 13.0715 1.13849 13.6726 1.34108 14.1935C1.55007 14.7464 1.87474 15.2414 2.29272 15.6529C2.7043 16.0708 3.20267 16.3955 3.74926 16.6012C4.27337 16.8038 4.87134 16.9452 5.74599 16.9837C6.62366 17.0224 6.90349 17.0319 9.1381 17.0319C11.3727 17.0319 11.6524 17.0224 12.5302 16.9837C13.4047 16.9452 14.006 16.8038 14.5268 16.6012C15.6329 16.1736 16.5075 15.2993 16.9351 14.1935C17.1376 13.6695 17.2791 13.0715 17.3177 12.1971C17.3562 11.3195 17.3659 11.0399 17.3659 8.80568C17.3659 6.5715 17.3626 6.29185 17.3241 5.41422ZM15.8419 12.1328C15.8065 12.9365 15.6715 13.3705 15.559 13.6598C15.2824 14.3767 14.7133 14.9457 13.9963 15.2222C13.7069 15.3347 13.2697 15.4697 12.469 15.505C11.6009 15.5436 11.3406 15.5532 9.1445 15.5532C6.94845 15.5532 6.68482 15.5436 5.81984 15.505C5.01603 15.4697 4.58196 15.3347 4.29259 15.2222C3.93577 15.0903 3.61098 14.8814 3.34735 14.6081C3.07406 14.3413 2.86506 14.0198 2.73319 13.6631C2.62065 13.3738 2.48564 12.9365 2.45034 12.1361C2.41166 11.2682 2.40211 11.0077 2.40211 8.81209C2.40211 6.61645 2.41166 6.35288 2.45034 5.48819C2.48564 4.68452 2.62065 4.25054 2.73319 3.96123C2.86506 3.60435 3.07406 3.27974 3.35062 3.01604C3.61738 2.7428 3.93891 2.53385 4.29586 2.40212C4.58523 2.28961 5.02256 2.15462 5.82311 2.1192C6.69123 2.08065 6.95172 2.07099 9.14764 2.07099C11.347 2.07099 11.6073 2.08065 12.4723 2.1192C13.2761 2.15462 13.7102 2.28961 13.9996 2.40212C14.3564 2.53385 14.6812 2.7428 14.9448 3.01604C15.2181 3.28288 15.4271 3.60435 15.559 3.96123C15.6715 4.25054 15.8065 4.68766 15.8419 5.48819C15.8805 6.35614 15.8902 6.61645 15.8902 8.81209C15.8902 11.0077 15.8805 11.2649 15.8419 12.1328Z"/>
<path d="M9.14091 4.57824C6.80671 4.57824 4.91284 6.47162 4.91284 8.80551C4.91284 11.1394 6.80671 13.0328 9.14091 13.0328C11.4752 13.0328 13.369 11.1394 13.369 8.80551C13.369 6.47162 11.4752 4.57824 9.14091 4.57824ZM9.14091 11.5476C7.6266 11.5476 6.39827 10.3197 6.39827 8.80551C6.39827 7.29135 7.6266 6.06338 9.14091 6.06338C10.6554 6.06338 11.8836 7.29135 11.8836 8.80551C11.8836 10.3197 10.6554 11.5476 9.14091 11.5476Z"/>
<path d="M14.5241 4.41116C14.5241 4.95614 14.0821 5.39803 13.5369 5.39803C12.9918 5.39803 12.5498 4.95614 12.5498 4.41116C12.5498 3.86605 12.9918 3.42428 13.5369 3.42428C14.0821 3.42428 14.5241 3.86605 14.5241 4.41116Z" />
</svg>
