<svg width="24" height="24" viewBox="0 0 24 24" fill="none" xmlns="http://www.w3.org/2000/svg">
<path d="M23.0989 7.2188C23.0474 6.05298 22.8589 5.2515 22.5887 4.557C22.3101 3.81981 21.8814 3.1598 21.3198 2.61113C20.771 2.05393 20.1065 1.62096 19.3777 1.3467C18.679 1.07664 17.8815 0.888113 16.7155 0.836713C15.5407 0.780958 15.1678 0.768066 12.1884 0.768066C9.20892 0.768066 8.83598 0.780958 7.66559 0.83236C6.49955 0.88376 5.69791 1.07245 5.00346 1.34236C4.26595 1.62096 3.60582 2.04957 3.05704 2.61113C2.49974 3.1598 2.06684 3.82416 1.79238 4.55282C1.52226 5.2515 1.3337 6.04864 1.28228 7.21445C1.22652 8.38897 1.21362 8.76184 1.21362 11.7407C1.21362 14.7197 1.22652 15.0925 1.27793 16.2626C1.32934 17.4285 1.51807 18.23 1.78819 18.9245C2.06684 19.6617 2.49974 20.3217 3.05704 20.8704C3.60582 21.4276 4.27031 21.8605 4.9991 22.1348C5.69791 22.4049 6.4952 22.5934 7.6614 22.6448C8.83163 22.6964 9.20473 22.709 12.1842 22.709C15.1637 22.709 15.5366 22.6964 16.707 22.6448C17.873 22.5934 18.6747 22.4049 19.3691 22.1348C20.8439 21.5646 22.0101 20.3989 22.5802 18.9245C22.8502 18.2258 23.0389 17.4285 23.0903 16.2626C23.1417 15.0925 23.1546 14.7197 23.1546 11.7407C23.1546 8.76184 23.1502 8.38897 23.0989 7.2188ZM21.1226 16.1769C21.0754 17.2485 20.8954 17.8272 20.7454 18.2129C20.3766 19.1688 19.6178 19.9274 18.6618 20.2961C18.2759 20.4461 17.693 20.6261 16.6254 20.6732C15.4679 20.7246 15.1209 20.7374 12.1927 20.7374C9.26468 20.7374 8.91318 20.7246 7.75987 20.6732C6.68812 20.6261 6.10936 20.4461 5.72354 20.2961C5.24778 20.1202 4.81472 19.8417 4.46321 19.4773C4.09883 19.1216 3.82016 18.6929 3.64434 18.2173C3.49428 17.8316 3.31427 17.2485 3.2672 16.1813C3.21563 15.0241 3.2029 14.6768 3.2029 11.7493C3.2029 8.82177 3.21563 8.47034 3.2672 7.31742C3.31427 6.24586 3.49428 5.66722 3.64434 5.28148C3.82016 4.80564 4.09883 4.37282 4.46758 4.02122C4.82326 3.6569 5.25196 3.3783 5.72789 3.20266C6.11372 3.05265 6.69683 2.87266 7.76423 2.82544C8.92172 2.77404 9.26904 2.76116 12.1969 2.76116C15.1294 2.76116 15.4765 2.77404 16.6298 2.82544C17.7015 2.87266 18.2803 3.05265 18.6662 3.20266C19.1419 3.3783 19.575 3.6569 19.9265 4.02122C20.2909 4.37701 20.5695 4.80564 20.7454 5.28148C20.8954 5.66722 21.0754 6.25005 21.1226 7.31742C21.1741 8.47469 21.187 8.82177 21.187 11.7493C21.187 14.6768 21.1741 15.0197 21.1226 16.1769Z" fill="black"/>
<path d="M12.188 6.10449C9.0757 6.10449 6.55054 8.629 6.55054 11.7409C6.55054 14.8527 9.0757 17.3772 12.188 17.3772C15.3004 17.3772 17.8254 14.8527 17.8254 11.7409C17.8254 8.629 15.3004 6.10449 12.188 6.10449ZM12.188 15.397C10.1689 15.397 8.53111 13.7598 8.53111 11.7409C8.53111 9.72197 10.1689 8.08468 12.188 8.08468C14.2073 8.08468 15.8449 9.72197 15.8449 11.7409C15.8449 13.7598 14.2073 15.397 12.188 15.397Z" fill="black"/>
<path d="M19.3656 5.88176C19.3656 6.6084 18.7762 7.19758 18.0493 7.19758C17.3225 7.19758 16.7332 6.6084 16.7332 5.88176C16.7332 5.15494 17.3225 4.56592 18.0493 4.56592C18.7762 4.56592 19.3656 5.15494 19.3656 5.88176Z" fill="black"/>
</svg>
